<?xml version="1.0" encoding="UTF-8" standalone="no"?>
<!-- Created with Inkscape (http://www.inkscape.org/) -->

<svg
   xmlns:dc="http://purl.org/dc/elements/1.1/"
   xmlns:cc="http://creativecommons.org/ns#"
   xmlns:rdf="http://www.w3.org/1999/02/22-rdf-syntax-ns#"
   xmlns:svg="http://www.w3.org/2000/svg"
   xmlns="http://www.w3.org/2000/svg"
   xmlns:sodipodi="http://sodipodi.sourceforge.net/DTD/sodipodi-0.dtd"
   xmlns:inkscape="http://www.inkscape.org/namespaces/inkscape"
   id="svg3336"
   version="1.1"
   inkscape:version="0.48.3.1 r9886"
   width="870.48126"
   height="201.49625"
   xml:space="preserve"
   sodipodi:docname="AAA.pdf"><metadata
     id="metadata3342"><rdf:RDF><cc:Work
         rdf:about=""><dc:format>image/svg+xml</dc:format><dc:type
           rdf:resource="http://purl.org/dc/dcmitype/StillImage" /><dc:title></dc:title></cc:Work></rdf:RDF></metadata><defs
     id="defs3340"><clipPath
       clipPathUnits="userSpaceOnUse"
       id="clipPath3350"><path
         d="m 0,0 841.89,0 0,1190.551 -841.89,0 L 0,0 z"
         id="path3352"
         inkscape:connector-curvature="0" /></clipPath></defs><sodipodi:namedview
     pagecolor="#ffffff"
     bordercolor="#666666"
     borderopacity="1"
     objecttolerance="10"
     gridtolerance="10"
     guidetolerance="10"
     inkscape:pageopacity="0"
     inkscape:pageshadow="2"
     inkscape:window-width="1600"
     inkscape:window-height="818"
     id="namedview3338"
     showgrid="false"
     fit-margin-top="0"
     fit-margin-left="0"
     fit-margin-right="0"
     fit-margin-bottom="0"
     inkscape:zoom="0.9983453"
     inkscape:cx="418.14362"
     inkscape:cy="150.03701"
     inkscape:window-x="-2"
     inkscape:window-y="24"
     inkscape:window-maximized="1"
     inkscape:current-layer="layer1" /><g
     inkscape:groupmode="layer"
     id="layer1"
     inkscape:label="Layer"
     transform="translate(-108.03765,-470.88828)"><g
       id="g3601"><path
         id="path3362-3"
         style="fill:#000000;fill-opacity:1;fill-rule:nonzero;stroke:none"
         d="m 137.7089,541.03453 c -11.8475,0 -20.16,-6.82125 -20.16,-17.7325 l 0,-36.8025 5.09875,0 0,36.02375 c 0,8.545 6.3575,13.65 15.2975,13.65 8.24,0 14.5175,-3.8525 14.5175,-14.28 l 0,-35.39375 5.1,0 0,36.64375 c 0,11.69 -9.18,17.89125 -19.85375,17.89125"
         inkscape:connector-curvature="0" /><path
         id="path3364-0"
         style="fill:#000000;fill-opacity:1;fill-rule:nonzero;stroke:none"
         d="m 219.1589,540.49203 -32.565,-46.92625 0,46.92625 -5.105,0 0,-53.9925 6.12,0 32.8025,47.1625 0,-47.1625 5.1,0 0,53.9925 -6.3525,0 z"
         inkscape:connector-curvature="0" /><path
         id="path3366-8"
         style="fill:#000000;fill-opacity:1;fill-rule:nonzero;stroke:none"
         d="m 250.6189,486.49953 5.02125,0 0,53.9925 -5.02125,0 0,-53.9925 z"
         inkscape:connector-curvature="0" /><path
         id="path3368-6"
         style="fill:#000000;fill-opacity:1;fill-rule:nonzero;stroke:none"
         d="m 299.73265,540.49203 -3.91375,0 -20.55875,-52.8875 4.9375,-1.5675 17.73,45.505 18.125,-45.6625 4.555,1.56625 -20.875,53.04625 z"
         inkscape:connector-curvature="0" /><path
         id="path3370-5"
         style="fill:#000000;fill-opacity:1;fill-rule:nonzero;stroke:none"
         d="m 345.24265,491.29078 0,19.06 21.5,0 0,4.7125 -21.5,0 0,20.7175 23.225,0 0,4.71125 -28.2475,0 0,-53.9925 28.2475,0 0,4.79125 -23.225,0 z"
         inkscape:connector-curvature="0" /><path
         id="path3372-9"
         style="fill:#000000;fill-opacity:1;fill-rule:nonzero;stroke:none"
         d="m 416.96015,541.19078 -16.48,-25.18125 -5.18375,0 0,24.4825 -5.095,0 0,-53.9925 13.1775,0 c 2.8275,0 15.62125,-0.385 15.62125,13.34625 0,8.86 -6.595,14.20125 -13.11,15.6125 l 15.85,23.4575 -4.78,2.275 z m -15.07125,-49.98 -6.5925,0 0,20.01 4.395,0 c 12.40875,0 13.97625,-7.05875 13.97625,-11.45625 0,-7.84375 -6.515,-8.55375 -11.77875,-8.55375"
         inkscape:connector-curvature="0" /><path
         id="path3374-8"
         style="fill:#000000;fill-opacity:1;fill-rule:nonzero;stroke:none"
         d="m 452.02765,540.95328 c -3.52875,0 -8.7825,-0.3825 -13.80875,-5.41 l 3.14375,-3.6075 c 3.37,3.37125 7.925,4.31875 10.27,4.31875 5.895,0 10.75375,-3.845 10.75375,-9.57125 0,-7.7775 -5.88375,-9.89625 -11.8475,-12.63625 -6.98875,-3.29125 -11.4525,-6.27625 -11.4525,-15.06875 0,-7.295 6.9,-12.94125 14.42875,-12.94125 4.395,0 7.3825,0.39375 13.10875,4.08 l -2.82875,4.00125 c -5.33125,-3.5375 -7.135,-3.30125 -10.4375,-3.30125 -3.055,0 -9.17625,2.275 -9.17625,8.555 0,6.19875 4.23875,8.24 9.01875,10.5175 7.7775,3.60625 14.28125,6.19875 14.28125,16.4775 0,8.16125 -6.9,14.58625 -15.45375,14.58625"
         inkscape:connector-curvature="0" /><path
         id="path3376-1"
         style="fill:#000000;fill-opacity:1;fill-rule:nonzero;stroke:none"
         d="m 489.4614,486.49953 5.01625,0 0,53.9925 -5.01625,0 0,-53.9925 z"
         inkscape:connector-curvature="0" /><path
         id="path3378-2"
         style="fill:#000000;fill-opacity:1;fill-rule:nonzero;stroke:none"
         d="m 534.73015,491.29078 0,49.20125 -5.09625,0 0,-49.20125 -17.505,0 0,-4.79125 39.78,0 0,4.79125 -17.17875,0 z"
         inkscape:connector-curvature="0" /><path
         id="path3380-9"
         style="fill:#000000;fill-opacity:1;fill-rule:nonzero;stroke:none"
         d="m 574.58765,491.29078 0,19.06 21.5,0 0,4.7125 -21.5,0 0,20.7175 23.22625,0 0,4.71125 -28.2425,0 0,-53.9925 28.2425,0 0,4.79125 -23.22625,0 z m 6.6725,-7.13625 -2.43375,-2.51375 10.27375,-10.7525 3.6175,3.6075 -11.4575,9.65875 z"
         inkscape:connector-curvature="0" /><path
         id="path3382-5"
         style="fill:#000000;fill-opacity:1;fill-rule:nonzero;stroke:none"
         d="m 978.5189,502.75328 -343.90375,0 0,18.875 343.90375,0 0,-18.875 z"
         inkscape:connector-curvature="0" /><path
         id="path3384-9"
         style="fill:#000000;fill-opacity:1;fill-rule:nonzero;stroke:none"
         d="m 261.17515,613.79078 -153.1375,0 0,18.88375 153.1375,0 0,-18.88375 z"
         inkscape:connector-curvature="0" /><path
         id="path3386-0"
         style="fill:#000000;fill-opacity:1;fill-rule:nonzero;stroke:none"
         d="m 326.40265,636.99203 -0.5525,-0.1375 0,-15.7 0.41375,0 c 7.08125,0 15.13875,-6.25 15.13875,-14.9925 0,-5.69625 -2.365,-14.3 -17.6325,-14.3 l -28.04875,0 0,-16.52125 28.8775,0 c 21.10125,0 35.955,12.085 35.955,29.57125 0,25.27 -22.20625,32.20875 -34.15125,32.08 m -30.68125,-34.02375 18.8825,0 0,67.8975 -18.8825,0 0,-67.8975 z"
         inkscape:connector-curvature="0" /><path
         id="path3388-4"
         style="fill:#000000;fill-opacity:1;fill-rule:nonzero;stroke:none"
         d="m 383.1739,671.69578 -18.885,-2.9075 32.63375,-78.455 8.88,22.35375 -22.62875,59.00875 z m 58.17,0 -10.1325,-26.1 -25.8225,0 5.54875,-15.68875 14.30125,0 -22.215,-54.56625 6.52375,0 13.325,0 37.76875,93.99875 -19.2975,2.35625 z"
         inkscape:connector-curvature="0" /><path
         id="path3390-7"
         style="fill:#000000;fill-opacity:1;fill-rule:nonzero;stroke:none"
         d="m 478.55015,575.34078 18.88375,0 0,95.525 -18.88375,0 0,-95.525 z m 31.6475,59.84625 -1.38,0 0,-16.38875 0.27625,0 c 3.8825,-0.13875 14.99125,-1.805 14.99125,-14.02625 0,-9.58 -9.71875,-12.62375 -14.85375,-12.62375 l -0.41375,0 0,-16.8075 0.8275,0 c 17.63375,0.415 33.6,8.8925 33.6,28.74 0,28.455 -29.01625,31.10625 -33.0475,31.10625 m 19.99875,37.1975 -15.55375,-26.375 18.46125,-4.5725 17.78,27.6275 -20.6875,3.32 z"
         inkscape:connector-curvature="0" /><path
         id="path3392-3"
         style="fill:#000000;fill-opacity:1;fill-rule:nonzero;stroke:none"
         d="m 569.7564,575.34078 19.01875,0 0,95.525 -19.01875,0 0,-95.525 z"
         inkscape:connector-curvature="0" /><path
         id="path3394-9"
         style="fill:#000000;fill-opacity:1;fill-rule:nonzero;stroke:none"
         d="m 641.39765,671.69578 c -12.77375,0 -22.35375,-2.35625 -31.7875,-11.2475 l 11.38375,-13.325 c 5.68625,4.85875 12.2125,8.05125 19.7125,8.05125 6.52625,0 13.88625,-3.46875 13.88625,-10.96875 0,-5.68625 -3.34,-9.01875 -8.06125,-11.80625 0.14875,0 9.165,-14.99 9.165,-14.99 9.44375,4.4425 18.05625,11.38125 18.05625,26.245 0,17.34625 -16.5275,28.04125 -32.355,28.04125 m 22.76625,-75.5275 c -6.93875,-3.745 -12.2125,-5.13625 -20.40125,-5.13625 -5.2725,0 -11.2475,3.60875 -11.2475,9.43375 0,6.5325 5.69875,9.30375 12.77375,12.35875 l -9.165,15.0025 c -10.69375,-4.44625 -22.21625,-10.28125 -22.21625,-28.0525 0,-15.69125 15.96625,-25.26125 30.13125,-25.26125 10.96,0 19.16,1.94375 28.59125,7.4925 l -8.46625,14.1625 z"
         inkscape:connector-curvature="0" /><path
         id="path3396-3"
         style="fill:#000000;fill-opacity:1;fill-rule:nonzero;stroke:none"
         d="m 751.1339,575.34078 59.97375,0 0,16.52125 -59.97375,0 0,-16.52125 z m 0,27.9025 19.02375,0 0,67.6225 -19.02375,0 0,-67.6225 z m 30.12875,10.83375 26.79875,0 0,16.10625 -26.79875,0 0,-16.10625 z m 0.14,40.27 29.705,0 0,16.51875 -29.705,0 0,-16.51875 z"
         inkscape:connector-curvature="0" /><path
         id="path3398-8"
         style="fill:#000000;fill-opacity:1;fill-rule:nonzero;stroke:none"
         d="m 859.70765,671.69578 c -12.78375,0 -22.35375,-2.35625 -31.79625,-11.2475 l 11.38375,-13.325 c 5.69875,4.85875 12.22125,8.05125 19.7125,8.05125 6.525,0 13.88875,-3.46875 13.88875,-10.96875 0,-5.68625 -3.3325,-9.01875 -8.055,-11.80625 0.14,0 9.15875,-14.99 9.15875,-14.99 9.44,4.4425 18.05625,11.38125 18.05625,26.245 0,17.34625 -16.53125,28.04125 -32.34875,28.04125 m 22.76875,-75.5275 c -6.95125,-3.745 -12.22125,-5.13625 -20.4125,-5.13625 -5.27375,0 -11.245,3.60875 -11.245,9.43375 0,6.5325 5.695,9.30375 12.7725,12.35875 l -9.1575,15.0025 c -10.6925,-4.44625 -22.21375,-10.28125 -22.21375,-28.0525 0,-15.69125 15.9575,-25.26125 30.12,-25.26125 10.97875,0 19.16,1.94375 28.6,7.4925 l -8.46375,14.1625 z"
         inkscape:connector-curvature="0" /><path
         id="path3400-3"
         style="fill:#000000;fill-opacity:1;fill-rule:nonzero;stroke:none"
         d="m 903.4389,575.34078 72.05375,0 0,16.3825 -72.05375,0 0,-16.3825 z m 26.9325,27.76625 18.88125,0 0,67.75875 -18.88125,0 0,-67.75875 z"
         inkscape:connector-curvature="0" /><path
         id="path3402-7"
         style="fill:#000000;fill-opacity:1;fill-rule:nonzero;stroke:none"
         d="m 724.3539,629.84578 -27.1025,0 0,-16.2625 27.1025,0 0,16.2625 z"
         inkscape:connector-curvature="0" /></g></g></svg>