<?xml version="1.0" encoding="UTF-8" standalone="no"?>
<!-- Generated by graphviz version 2.38.0 (20140413.2041)
 -->

<!-- Title: state_machine Pages: 1 -->

<svg
   xmlns:dc="http://purl.org/dc/elements/1.1/"
   xmlns:cc="http://creativecommons.org/ns#"
   xmlns:rdf="http://www.w3.org/1999/02/22-rdf-syntax-ns#"
   xmlns:svg="http://www.w3.org/2000/svg"
   xmlns="http://www.w3.org/2000/svg"
   xmlns:sodipodi="http://sodipodi.sourceforge.net/DTD/sodipodi-0.dtd"
   xmlns:inkscape="http://www.inkscape.org/namespaces/inkscape"
   width="557.85144"
   height="1171.25"
   viewBox="0 0 445.87383 937"
   id="svg2"
   version="1.1"
   inkscape:version="0.48.5 r10040"
   sodipodi:docname="state_graph_vert.svg">
  <metadata
     id="metadata255">
    <rdf:RDF>
      <cc:Work
         rdf:about="">
        <dc:format>image/svg+xml</dc:format>
        <dc:type
           rdf:resource="http://purl.org/dc/dcmitype/StillImage" />
      </cc:Work>
    </rdf:RDF>
  </metadata>
  <defs
     id="defs253" />
  <sodipodi:namedview
     pagecolor="#ffffff"
     bordercolor="#666666"
     borderopacity="1"
     objecttolerance="10"
     gridtolerance="10"
     guidetolerance="10"
     inkscape:pageopacity="0"
     inkscape:pageshadow="2"
     inkscape:window-width="1600"
     inkscape:window-height="849"
     id="namedview251"
     showgrid="false"
     inkscape:zoom="1.103125"
     inkscape:cx="224.06165"
     inkscape:cy="991.6592"
     inkscape:window-x="-2"
     inkscape:window-y="-3"
     inkscape:window-maximized="1"
     inkscape:current-layer="svg2"
     fit-margin-top="0"
     fit-margin-left="0"
     fit-margin-right="0"
     fit-margin-bottom="0" />
  <polygon
     points="231.538,-936 152.538,-898 231.538,-860 310.538,-898 231.538,-936 "
     id="polygon12"
     style="fill:none;stroke:#ff0000"
     transform="translate(0.17467762,936.5)" />
  <text
     x="231.71268"
     y="34.700012"
     font-size="14.00"
     id="text14"
     style="font-size:14px;font-style:normal;font-variant:normal;font-weight:normal;font-stretch:normal;text-anchor:middle;font-family:Linux Biolinum O;-inkscape-font-specification:Linux Biolinum O">
    <tspan
       style="font-style:normal;font-variant:normal;font-weight:normal;font-stretch:normal;font-family:Linux Biolinum O;-inkscape-font-specification:Linux Biolinum O"
       id="tspan3547">Sélection</tspan>
  </text>
  <text
     x="231.71268"
     y="49.700012"
     font-size="14.00"
     id="text16"
     style="font-size:14px;font-style:normal;font-variant:normal;font-weight:normal;font-stretch:normal;text-anchor:middle;font-family:Linux Biolinum O;-inkscape-font-specification:Linux Biolinum O">des<tspan
   style="font-style:italic"
   id="tspan3549">cNodes</tspan>
</text>
  <ellipse
     cx="59.5383"
     cy="-756"
     rx="33.5952"
     ry="18"
     id="ellipse21"
     d="m 93.133499,-756 c 0,9.94113 -15.041083,18 -33.595199,18 -18.554117,0 -33.5952,-8.05887 -33.5952,-18 0,-9.94113 15.041083,-18 33.5952,-18 18.554116,0 33.595199,8.05887 33.595199,18 z"
     sodipodi:cx="59.5383"
     sodipodi:cy="-756"
     sodipodi:rx="33.5952"
     sodipodi:ry="18"
     style="fill:none;stroke:#0000ff"
     transform="translate(0.17467762,936.5)" />
  <text
     x="59.712978"
     y="184.20001"
     font-size="14.00"
     id="text23"
     style="font-size:14px;font-style:normal;font-variant:normal;font-weight:normal;font-stretch:normal;text-anchor:middle;font-family:Linux Biolinum O;-inkscape-font-specification:Linux Biolinum O">
    <tspan
       style="font-style:italic"
       id="tspan3552">cNode</tspan>
  </text>
  <path
     d="m 198.56968,60.592 c -32.573,20.996 -79.679,52.159 -95.857,66.908 -9.146102,8.339 -18.067202,18.652 -25.391002,27.89"
     id="path28"
     inkscape:connector-curvature="0"
     style="fill:none;stroke:#000000" />
  <polygon
     points="74.2416,-783.074 79.7861,-778.801 79.7861,-778.801 70.9094,-773.017 "
     id="polygon30"
     style="fill:#000000;stroke:#000000"
     transform="translate(0.17467762,936.5)" />
  <text
     x="153.73109"
     y="120.92947"
     font-size="14.00"
     id="text32"
     style="font-size:14px;font-style:normal;font-variant:normal;font-weight:normal;font-stretch:normal;text-anchor:middle;font-family:Linux Biolinum O;-inkscape-font-specification:Linux Biolinum O">sélectionné</text>
  <polygon
     points="206.538,-809 111.538,-756 206.538,-703 301.538,-756 206.538,-809 "
     id="polygon37"
     style="fill:none;stroke:#000000"
     transform="translate(0.17467762,936.5)" />
  <text
     x="206.71268"
     y="169.20001"
     font-size="14.00"
     id="text39"
     style="font-size:14px;font-style:normal;font-variant:normal;font-weight:normal;font-stretch:normal;text-anchor:middle;font-family:Linux Biolinum O;-inkscape-font-specification:Linux Biolinum O">Reste-t-il des</text>
  <text
     x="206.71268"
     y="184.20001"
     font-size="14.00"
     id="text41"
     style="font-size:14px;font-style:normal;font-variant:normal;font-weight:normal;font-stretch:normal;text-anchor:middle;font-family:Linux Biolinum O;-inkscape-font-specification:Linux Biolinum O">voisins directs</text>
  <text
     x="206.71268"
     y="199.20001"
     font-size="14.00"
     id="text43"
     style="font-size:14px;font-style:normal;font-variant:normal;font-weight:normal;font-stretch:normal;text-anchor:middle;font-family:Linux Biolinum O;-inkscape-font-specification:Linux Biolinum O">à traiter ?</text>
  <path
     d="m 225.59768,73.748 c -2.598,14.547 -5.699,31.91 -8.629,48.32"
     id="path48"
     inkscape:connector-curvature="0"
     style="fill:none;stroke:#000000" />
  <polygon
     points="213.31,-814.83 220.201,-813.6 220.201,-813.6 214.997,-804.371 "
     id="polygon50"
     style="fill:#000000;stroke:#000000"
     transform="translate(0.17467762,936.5)" />
  <text
     x="265.66309"
     y="113.67735"
     font-size="14.00"
     id="text52"
     style="font-size:14px;font-style:normal;font-variant:normal;font-weight:normal;font-stretch:normal;text-anchor:middle;font-family:Linux Biolinum O;-inkscape-font-specification:Linux Biolinum O">non sélectionné</text>
  <ellipse
     cx="337.53799"
     cy="-599"
     rx="50.41"
     ry="26.7407"
     id="ellipse57"
     d="m 387.94799,-599 c 0,14.76848 -22.56932,26.7407 -50.41,26.7407 -27.84067,0 -50.41,-11.97222 -50.41,-26.7407 0,-14.76848 22.56933,-26.7407 50.41,-26.7407 27.84068,0 50.41,11.97222 50.41,26.7407 z"
     sodipodi:cx="337.53799"
     sodipodi:cy="-599"
     sodipodi:rx="50.41"
     sodipodi:ry="26.7407"
     style="fill:none;stroke:#0000ff"
     transform="translate(0.17467762,936.5)" />
  <text
     x="337.71265"
     y="333.70001"
     font-size="14.00"
     id="text59"
     style="font-size:14px;font-style:normal;font-variant:normal;font-weight:normal;font-stretch:normal;text-anchor:middle;font-family:Linux Biolinum O;-inkscape-font-specification:Linux Biolinum O">Capteur</text>
  <text
     x="337.71265"
     y="348.70001"
     font-size="14.00"
     id="text61"
     style="font-size:14px;font-style:normal;font-variant:normal;font-weight:normal;font-stretch:normal;text-anchor:middle;font-family:Linux Biolinum O;-inkscape-font-specification:Linux Biolinum O">(mesures)</text>
  <path
     d="m 341.40368,310.671 c 5.337,-46.752 10.498,-146.968 -30.691,-216.171 -7.428,-12.48 -18.917,-22.826 -30.854,-31.047"
     id="path66"
     inkscape:connector-curvature="0"
     style="fill:none;stroke:#000000" />
  <polygon
     points="281.268,-876.19 277.48,-870.303 277.48,-870.303 270.965,-878.658 "
     id="polygon68"
     style="fill:#000000;stroke:#000000"
     transform="translate(0.17467762,936.5)" />
  <text
     x="376.48743"
     y="196.52863"
     font-size="14.00"
     id="text70"
     style="font-size:14px;font-style:normal;font-variant:normal;font-weight:normal;font-stretch:normal;text-anchor:middle;font-family:Linux Biolinum O;-inkscape-font-specification:Linux Biolinum O">fin du cycle</text>
  <path
     d="m 53.775478,162.699 c -5.4042,-18.561 -10.5445,-48.433 3.9375,-68.199 21.5582,-29.424 58.919702,-43.506 93.509702,-50.095"
     id="path75"
     inkscape:connector-curvature="0"
     style="fill:none;stroke:#000000" />
  <polygon
     points="151.928,-888.695 150.745,-895.594 150.745,-895.594 161.193,-893.835 "
     id="polygon77"
     style="fill:#000000;stroke:#000000"
     transform="translate(0.17467762,936.5)" />
  <text
     x="68.456604"
     y="54.935139"
     font-size="14.00"
     id="text79"
     style="font-size:14px;font-style:normal;font-variant:normal;font-weight:normal;font-stretch:normal;text-anchor:middle;font-family:Linux Biolinum O;-inkscape-font-specification:Linux Biolinum O">
    <tspan
       style="font-style:normal;font-variant:normal;font-weight:normal;font-stretch:normal;font-family:Linux Biolinum O;-inkscape-font-specification:Linux Biolinum O"
       id="tspan3541">fin du cycle</tspan>
  </text>
  <ellipse
     cx="398.53799"
     cy="-53"
     rx="46.838699"
     ry="26.7407"
     id="ellipse84"
     d="m 445.37669,-53 c 0,14.768481 -20.9704,26.7407 -46.8387,26.7407 -25.86829,0 -46.83869,-11.972219 -46.83869,-26.7407 0,-14.768481 20.9704,-26.7407 46.83869,-26.7407 25.8683,0 46.8387,11.972219 46.8387,26.7407 z"
     sodipodi:cx="398.53799"
     sodipodi:cy="-53"
     sodipodi:rx="46.838699"
     sodipodi:ry="26.7407"
     style="fill:none;stroke:#0000ff"
     transform="translate(0.17467762,936.5)" />
  <text
     x="398.71265"
     y="879.70001"
     font-size="14.00"
     id="text86"
     style="font-size:14px;font-style:normal;font-variant:normal;font-weight:normal;font-stretch:normal;text-anchor:middle;font-family:Linux Biolinum O;-inkscape-font-specification:Linux Biolinum O"><tspan
   style="font-style:italic"
   id="tspan3564">vNode</tspan>
 et</text>
  <text
     x="398.71265"
     y="894.70001"
     font-size="14.00"
     id="text88"
     style="font-size:14px;font-style:normal;font-variant:normal;font-weight:normal;font-stretch:normal;text-anchor:middle;font-family:Linux Biolinum O;-inkscape-font-specification:Linux Biolinum O">mesures</text>
  <path
     d="m 406.62268,856.8619 c 9.476,-33.0359 24.09,-92.4059 24.09,-144.3619 0,-533 0,-533 0,-533 0,-24.315 -1,-33.691 -17,-52 -31.79,-36.378 -82.012,-59.078 -121.654,-72.291"
     id="path93"
     inkscape:connector-curvature="0"
     style="fill:none;stroke:#000000" />
  <polygon
     points="292.901,-884.64 290.759,-877.976 290.759,-877.976 282.31,-884.368 "
     id="polygon95"
     style="fill:#000000;stroke:#000000"
     transform="translate(0.17467762,936.5)" />
  <text
     x="395.04266"
     y="478.12354"
     font-size="14.00"
     id="text97"
     style="font-size:14px;font-style:normal;font-variant:normal;font-weight:normal;font-stretch:normal;text-anchor:middle;font-family:Linux Biolinum O;-inkscape-font-specification:Linux Biolinum O">fin du cycle</text>
  <polygon
     points="152.538,-495 72.5383,-457 152.538,-419 232.538,-457 152.538,-495 "
     id="polygon102"
     style="fill:none;stroke:#000000"
     transform="translate(0.17467762,936.5)" />
  <text
     x="152.71268"
     y="475.70001"
     font-size="14.00"
     id="text104"
     style="font-size:14px;font-style:normal;font-variant:normal;font-weight:normal;font-stretch:normal;text-anchor:middle;font-family:Linux Biolinum O;-inkscape-font-specification:Linux Biolinum O">Sélection</text>
  <text
     x="152.71268"
     y="490.70001"
     font-size="14.00"
     id="text106"
     style="font-size:14px;font-style:normal;font-variant:normal;font-weight:normal;font-stretch:normal;text-anchor:middle;font-family:Linux Biolinum O;-inkscape-font-specification:Linux Biolinum O">des <tspan
   style="font-style:italic"
   id="tspan3556">vNodes</tspan>
</text>
  <path
     d="M 107.83368,462.615 C 76.384078,448.849 36.705978,425.553 17.712978,390.5 c -22.4439704,-41.421 -24.0561104,-65.494 0,-106 3.8217,-6.435 76.9004,-45.165 131.042702,-73.242"
     id="path111"
     inkscape:connector-curvature="0"
     style="fill:none;stroke:#000000" />
  <polygon
     points="150.499,-722.294 147.281,-728.51 147.281,-728.51 157.771,-730 "
     id="polygon113"
     style="fill:#000000;stroke:#000000"
     transform="translate(0.17467762,936.5)" />
  <text
     x="55.13649"
     y="309.29065"
     font-size="14.00"
     id="text115"
     style="font-size:14px;font-style:normal;font-variant:normal;font-weight:normal;font-stretch:normal;text-anchor:middle;font-family:Linux Biolinum O;-inkscape-font-specification:Linux Biolinum O">non sélectionné</text>
  <polygon
     points="191.038,-368 114.038,-368 114.038,-315 191.038,-315 191.038,-368 "
     id="polygon120"
     style="fill:none;stroke:#000000"
     transform="translate(0.17467762,936.5)" />
  <text
     x="152.71268"
     y="583.70001"
     font-size="14.00"
     id="text122"
     style="font-size:14px;font-style:normal;font-variant:normal;font-weight:normal;font-stretch:normal;text-anchor:middle;font-family:Linux Biolinum O;-inkscape-font-specification:Linux Biolinum O">Ajouter</text>
  <text
     x="152.71268"
     y="598.70001"
     font-size="14.00"
     id="text124"
     style="font-size:14px;font-style:normal;font-variant:normal;font-weight:normal;font-stretch:normal;text-anchor:middle;font-family:Linux Biolinum O;-inkscape-font-specification:Linux Biolinum O">ce <tspan
   style="font-style:italic"
   id="tspan3558">cNode</tspan>
 à</text>
  <text
     x="152.71268"
     y="613.70001"
     font-size="14.00"
     id="text126"
     style="font-size:14px;font-style:normal;font-variant:normal;font-weight:normal;font-stretch:normal;text-anchor:middle;font-family:Linux Biolinum O;-inkscape-font-specification:Linux Biolinum O">la liste</text>
  <path
     d="m 152.71268,517.664 c 0,12.93 0,27.407 0,40.248"
     id="path131"
     inkscape:connector-curvature="0"
     style="fill:none;stroke:#000000" />
  <polygon
     points="149.038,-378.255 156.038,-378.255 156.038,-378.255 152.538,-368.255 "
     id="polygon133"
     style="fill:#000000;stroke:#000000"
     transform="translate(0.17467762,936.5)" />
  <text
     x="187.56395"
     y="546.70001"
     font-size="14.00"
     id="text135"
     style="font-size:14px;font-style:normal;font-variant:normal;font-weight:normal;font-stretch:normal;text-anchor:middle;font-family:Linux Biolinum O;-inkscape-font-specification:Linux Biolinum O">sélectionné</text>
  <polygon
     points="190.538,-106 107.538,-53 190.538,-1.42109e-14 273.538,-53 190.538,-106 "
     id="polygon140"
     style="fill:none;stroke:#000000"
     transform="translate(0.17467762,936.5)" />
  <text
     x="190.71268"
     y="872.20001"
     font-size="14.00"
     id="text142"
     style="font-size:14px;font-style:normal;font-variant:normal;font-weight:normal;font-stretch:normal;text-anchor:middle;font-family:Linux Biolinum O;-inkscape-font-specification:Linux Biolinum O">Sélection</text>
  <text
     x="190.71268"
     y="887.20001"
     font-size="14.00"
     id="text144"
     style="font-size:14px;font-style:normal;font-variant:normal;font-weight:normal;font-stretch:normal;text-anchor:middle;font-family:Linux Biolinum O;-inkscape-font-specification:Linux Biolinum O">des <tspan
   style="font-style:italic"
   id="tspan3566">vNodes</tspan>
,</text>
  <text
     x="190.71268"
     y="902.20001"
     font-size="14.00"
     id="text146"
     style="font-size:14px;font-style:normal;font-variant:normal;font-weight:normal;font-stretch:normal;text-anchor:middle;font-family:Linux Biolinum O;-inkscape-font-specification:Linux Biolinum O">à nouveau</text>
  <polygon
     points="298.538,-278 194.538,-225 298.538,-172 402.538,-225 298.538,-278 "
     id="polygon151"
     style="fill:none;stroke:#000000"
     transform="translate(0.17467762,936.5)" />
  <text
     x="298.71265"
     y="700.20001"
     font-size="14.00"
     id="text153"
     style="font-size:14px;font-style:normal;font-variant:normal;font-weight:normal;font-stretch:normal;text-anchor:middle;font-family:Linux Biolinum O;-inkscape-font-specification:Linux Biolinum O"><tspan
   style="font-style:italic"
   id="tspan3560">vNode</tspan>
 ;</text>
  <text
     x="298.71265"
     y="715.20001"
     font-size="14.00"
     id="text155"
     style="font-size:14px;font-style:normal;font-variant:normal;font-weight:normal;font-stretch:normal;text-anchor:middle;font-family:Linux Biolinum O;-inkscape-font-specification:Linux Biolinum O">Reste-t-il des</text>
  <text
     x="298.71265"
     y="730.20001"
     font-size="14.00"
     id="text157"
     style="font-size:14px;font-style:normal;font-variant:normal;font-weight:normal;font-stretch:normal;text-anchor:middle;font-family:Linux Biolinum O;-inkscape-font-specification:Linux Biolinum O">voisins directs ?</text>
  <path
     d="m 179.77968,837.346 c -2.009,-18.056 -1.127,-38.421 7.933,-54.846 9.839,-17.837 26.347,-31.754 43.664,-42.312"
     id="path162"
     inkscape:connector-curvature="0"
     style="fill:none;stroke:#000000" />
  <polygon
     points="233.367,-193.519 229.884,-199.592 229.884,-199.592 240.3,-201.531 "
     id="polygon164"
     style="fill:#000000;stroke:#000000"
     transform="translate(0.17467762,936.5)" />
  <text
     x="239.64044"
     y="780.64618"
     font-size="14.00"
     id="text166"
     style="font-size:14px;font-style:normal;font-variant:normal;font-weight:normal;font-stretch:normal;text-anchor:middle;font-family:Linux Biolinum O;-inkscape-font-specification:Linux Biolinum O">non sélectionné</text>
  <text
     x="228.03703"
     y="795.64618"
     font-size="14.00"
     id="text168"
     style="font-size:14px;font-style:normal;font-variant:normal;font-weight:normal;font-stretch:normal;text-anchor:middle;font-family:Linux Biolinum O;-inkscape-font-specification:Linux Biolinum O">pour ce <tspan
   style="font-style:italic"
   id="tspan3562">cNode</tspan>
</text>
  <path
     d="m 164.59068,847.1126 c -14.89,-22.4256 -32.092,-52.7436 -39.878,-82.6126 -11.883,-45.588 -9.848,-59.93 0,-106 1.99,-9.307 5.473,-18.905 9.321,-27.701"
     id="path173"
     inkscape:connector-curvature="0"
     style="fill:none;stroke:#000000" />
  <polygon
     points="137.084,-304.336 130.736,-307.286 130.736,-307.286 138.124,-314.88 "
     id="polygon175"
     style="fill:#000000;stroke:#000000"
     transform="translate(0.17467762,936.5)" />
  <text
     x="81.966209"
     y="713.02435"
     font-size="14.00"
     id="text177"
     style="font-size:14px;font-style:normal;font-variant:normal;font-weight:normal;font-stretch:normal;text-anchor:middle;font-family:Linux Biolinum O;-inkscape-font-specification:Linux Biolinum O">sélectionné</text>
  <path
     d="m 236.76668,217.06 c 22.357,26.453 52.599,62.235 74.138,87.721"
     id="path182"
     inkscape:connector-curvature="0"
     style="fill:none;stroke:#000000" />
  <polygon
     points="308.269,-629.21 313.615,-633.728 313.615,-633.728 317.397,-623.831 "
     id="polygon184"
     style="fill:#000000;stroke:#000000"
     transform="translate(0.17467762,936.5)" />
  <text
     x="287.93787"
     y="260.52438"
     font-size="14.00"
     id="text186"
     style="font-size:14px;font-style:normal;font-variant:normal;font-weight:normal;font-stretch:normal;text-anchor:middle;font-family:Linux Biolinum O;-inkscape-font-specification:Linux Biolinum O">non</text>
  <polygon
     points="190.538,-652 111.538,-599 190.538,-546 269.538,-599 190.538,-652 "
     id="polygon191"
     style="fill:none;stroke:#000000"
     transform="translate(0.17467762,936.5)" />
  <text
     x="190.71268"
     y="326.20001"
     font-size="14.00"
     id="text193"
     style="font-size:14px;font-style:normal;font-variant:normal;font-weight:normal;font-stretch:normal;text-anchor:middle;font-family:Linux Biolinum O;-inkscape-font-specification:Linux Biolinum O">Ce voisin</text>
  <text
     x="190.71268"
     y="341.20001"
     font-size="14.00"
     id="text195"
     style="font-size:14px;font-style:normal;font-variant:normal;font-weight:normal;font-stretch:normal;text-anchor:middle;font-family:Linux Biolinum O;-inkscape-font-specification:Linux Biolinum O">direct est-il</text>
  <text
     x="190.71268"
     y="356.20001"
     font-size="14.00"
     id="text197"
     style="font-size:14px;font-style:normal;font-variant:normal;font-weight:normal;font-stretch:normal;text-anchor:middle;font-family:Linux Biolinum O;-inkscape-font-specification:Linux Biolinum O">un <tspan
   style="font-style:italic"
   id="tspan3554">cNode</tspan>
 ?</text>
  <path
     d="m 187.15668,222.913 c -3.5,9.214 -6.612,19.076 -8.444,28.587 -1.902,9.878 -1.967,20.457 -1.031,30.679"
     id="path202"
     inkscape:connector-curvature="0"
     style="fill:none;stroke:#000000" />
  <polygon
     points="174.05,-653.753 180.998,-654.608 180.998,-654.608 178.745,-644.256 "
     id="polygon204"
     style="fill:#000000;stroke:#000000"
     transform="translate(0.17467762,936.5)" />
  <text
     x="165.9563"
     y="262.70001"
     font-size="14.00"
     id="text206"
     style="font-size:14px;font-style:normal;font-variant:normal;font-weight:normal;font-stretch:normal;text-anchor:middle;font-family:Linux Biolinum O;-inkscape-font-specification:Linux Biolinum O">oui</text>
  <path
     d="m 322.41168,752.788 c 17.228,29.287 40.279,68.474 56.521,96.0862"
     id="path211"
     inkscape:connector-curvature="0"
     style="fill:none;stroke:#000000" />
  <polygon
     points="375.9,-85.5813 381.934,-89.1304 381.934,-89.1304 383.987,-78.7365 "
     id="polygon213"
     style="fill:#000000;stroke:#000000"
     transform="translate(0.17467762,936.5)" />
  <text
     x="365.21265"
     y="801.20001"
     font-size="14.00"
     id="text215"
     style="font-size:14px;font-style:normal;font-variant:normal;font-weight:normal;font-stretch:normal;text-anchor:middle;font-family:Linux Biolinum O;-inkscape-font-specification:Linux Biolinum O">non</text>
  <path
     d="m 294.40568,762.55 c -3.136,16.801 -8.51,35.042 -17.693,49.95 -9.03,14.66 -22.247,27.6204 -35.624,38.2796"
     id="path220"
     inkscape:connector-curvature="0"
     style="fill:none;stroke:#000000" />
  <polygon
     points="238.434,-88.2308 242.676,-82.6628 242.676,-82.6628 232.601,-79.3863 "
     id="polygon222"
     style="fill:#000000;stroke:#000000"
     transform="translate(0.17467762,936.5)" />
  <text
     x="280.58234"
     y="835.28497"
     font-size="14.00"
     id="text224"
     style="font-size:14px;font-style:normal;font-variant:normal;font-weight:normal;font-stretch:normal;text-anchor:middle;font-family:Linux Biolinum O;-inkscape-font-specification:Linux Biolinum O">oui</text>
  <path
     d="m 178.68968,382.797 c -4.574,16.85 -9.774,36.008 -14.314,52.734"
     id="path229"
     inkscape:connector-curvature="0"
     style="fill:none;stroke:#000000" />
  <polygon
     points="160.713,-501.48 167.469,-499.646 167.469,-499.646 161.472,-490.912 "
     id="polygon231"
     style="fill:#000000;stroke:#000000"
     transform="translate(0.17467762,936.5)" />
  <text
     x="180.71268"
     y="419.70001"
     font-size="14.00"
     id="text233"
     style="font-size:14px;font-style:normal;font-variant:normal;font-weight:normal;font-stretch:normal;text-anchor:middle;font-family:Linux Biolinum O;-inkscape-font-specification:Linux Biolinum O">oui</text>
  <path
     d="m 195.74368,287.765 c 1.532,-14.845 3.234,-31.332 4.831,-46.803"
     id="path238"
     inkscape:connector-curvature="0"
     style="fill:none;stroke:#000000" />
  <polygon
     points="203.886,-695.224 196.923,-695.943 196.923,-695.943 201.432,-705.531 "
     id="polygon240"
     style="fill:#000000;stroke:#000000"
     transform="translate(0.17467762,936.5)" />
  <text
     x="211.66312"
     y="266.32608"
     font-size="14.00"
     id="text242"
     style="font-size:14px;font-style:normal;font-variant:normal;font-weight:normal;font-stretch:normal;text-anchor:middle;font-family:Linux Biolinum O;-inkscape-font-specification:Linux Biolinum O">non</text>
  <path
     d="m 185.47768,621.696 c 19.16,15.026 43.696,34.268 65.028,50.997"
     id="path247"
     inkscape:connector-curvature="0"
     style="fill:none;stroke:#000000" />
  <polygon
     points="248.303,-260.949 252.623,-266.457 252.623,-266.457 258.331,-257.532 "
     id="polygon249"
     style="fill:#000000;stroke:#000000"
     transform="translate(0.17467762,936.5)" />
</svg>
