<?xml version="1.0" encoding="UTF-8" standalone="no"?>
<!DOCTYPE svg PUBLIC "-//W3C//DTD SVG 1.1//EN"
 "http://www.w3.org/Graphics/SVG/1.1/DTD/svg11.dtd">
<!-- Generated by graphviz version 2.26.3 (20100126.1600)
 -->
<!-- Title: state_machine Pages: 1 -->
<svg width="1592pt" height="289pt"
 viewBox="0.00 0.00 1592.00 289.00" xmlns="http://www.w3.org/2000/svg" xmlns:xlink="http://www.w3.org/1999/xlink">
<g id="graph1" class="graph" transform="scale(1 1) rotate(0) translate(4 285)">
<title>state_machine</title>
<polygon fill="white" stroke="white" points="-4,5 -4,-285 1589,-285 1589,5 -4,5"/>
<!-- el_cnode -->
<g id="node1" class="node"><title>el_cnode</title>
<polygon fill="none" stroke="red" points="71,-209 1.42109e-14,-165 71,-121 142,-165 71,-209"/>
<text text-anchor="middle" x="71" y="-170.4" font-family="Times Roman,serif" font-size="14.00">cNode</text>
<text text-anchor="middle" x="71" y="-152.4" font-family="Times Roman,serif" font-size="14.00">election</text>
</g>
<!-- cnode -->
<g id="node3" class="node"><title>cnode</title>
<ellipse fill="none" stroke="blue" cx="346" cy="-263" rx="41.2167" ry="18.3848"/>
<text text-anchor="middle" x="346" y="-259.4" font-family="Times Roman,serif" font-size="14.00">cNode</text>
</g>
<!-- el_cnode&#45;&gt;cnode -->
<g id="edge2" class="edge"><title>el_cnode&#45;&gt;cnode</title>
<path fill="none" stroke="black" d="M120.965,-178.102C163.65,-189.779 221.333,-206.853 242,-219 251.487,-224.576 250.509,-230.432 260,-236 271.832,-242.941 285.644,-248.294 298.693,-252.333"/>
<polygon fill="black" stroke="black" points="297.898,-255.747 308.478,-255.17 299.848,-249.024 297.898,-255.747"/>
<text text-anchor="middle" x="201" y="-224.4" font-family="Times Roman,serif" font-size="14.00">elected</text>
</g>
<!-- has_1hop -->
<g id="node7" class="node"><title>has_1hop</title>
<polygon fill="none" stroke="black" points="346,-227 260,-165 346,-103 432,-165 346,-227"/>
<text text-anchor="middle" x="346" y="-179.4" font-family="Times Roman,serif" font-size="14.00">any 1&#45;hop</text>
<text text-anchor="middle" x="346" y="-161.4" font-family="Times Roman,serif" font-size="14.00">neighbor</text>
<text text-anchor="middle" x="346" y="-143.4" font-family="Times Roman,serif" font-size="14.00">left?</text>
</g>
<!-- el_cnode&#45;&gt;has_1hop -->
<g id="edge6" class="edge"><title>el_cnode&#45;&gt;has_1hop</title>
<path fill="none" stroke="black" d="M142.177,-165C174.912,-165 214.242,-165 249.584,-165"/>
<polygon fill="black" stroke="black" points="249.924,-168.5 259.924,-165 249.924,-161.5 249.924,-168.5"/>
<text text-anchor="middle" x="201" y="-170.4" font-family="Times Roman,serif" font-size="14.00">not elected</text>
</g>
<!-- sensing -->
<g id="node2" class="node"><title>sensing</title>
<ellipse fill="none" stroke="blue" cx="561" cy="-67" rx="50.2046" ry="18.3848"/>
<text text-anchor="middle" x="561" y="-63.4" font-family="Times Roman,serif" font-size="14.00">Sensing</text>
</g>
<!-- sensing&#45;&gt;el_cnode -->
<g id="edge16" class="edge"><title>sensing&#45;&gt;el_cnode</title>
<path fill="none" stroke="black" d="M512.504,-62.4521C452.343,-58.1703 347.069,-55.1541 260,-76 207.812,-88.4948 152.814,-116.277 115.689,-137.501"/>
<polygon fill="black" stroke="black" points="113.543,-134.699 106.648,-142.743 117.054,-140.755 113.543,-134.699"/>
<text text-anchor="middle" x="346" y="-81.4" font-family="Times Roman,serif" font-size="14.00">end of cycle</text>
</g>
<!-- cnode&#45;&gt;el_cnode -->
<g id="edge4" class="edge"><title>cnode&#45;&gt;el_cnode</title>
<path fill="none" stroke="black" d="M304.387,-263.469C265.521,-262.478 206.658,-257.254 160,-237 139.973,-228.307 120.746,-213.816 105.319,-200.105"/>
<polygon fill="black" stroke="black" points="107.351,-197.219 97.6146,-193.041 102.62,-202.379 107.351,-197.219"/>
<text text-anchor="middle" x="201" y="-263.4" font-family="Times Roman,serif" font-size="14.00">end of cycle</text>
</g>
<!-- vnode -->
<g id="node4" class="node"><title>vnode</title>
<ellipse fill="none" stroke="blue" cx="1509" cy="-31" rx="63.1385" ry="31.1127"/>
<text text-anchor="middle" x="1509" y="-36.4" font-family="Times Roman,serif" font-size="14.00">vNode and</text>
<text text-anchor="middle" x="1509" y="-18.4" font-family="Times Roman,serif" font-size="14.00">sensing</text>
</g>
<!-- vnode&#45;&gt;el_cnode -->
<g id="edge22" class="edge"><title>vnode&#45;&gt;el_cnode</title>
<path fill="none" stroke="black" d="M1445.64,-28.307C1370.39,-25.3452 1241.07,-21 1130,-21 346,-21 346,-21 346,-21 259.795,-21 234.096,-31.9415 160,-76 137.686,-89.2682 116.915,-109.389 101.061,-127.145"/>
<polygon fill="black" stroke="black" points="98.0591,-125.263 94.1343,-135.104 103.339,-129.858 98.0591,-125.263"/>
<text text-anchor="middle" x="761" y="-26.4" font-family="Times Roman,serif" font-size="14.00">end of cycle</text>
</g>
<!-- el_vnode -->
<g id="node5" class="node"><title>el_vnode</title>
<polygon fill="none" stroke="black" points="761,-242 690,-198 761,-154 832,-198 761,-242"/>
<text text-anchor="middle" x="761" y="-203.4" font-family="Times Roman,serif" font-size="14.00">vNode</text>
<text text-anchor="middle" x="761" y="-185.4" font-family="Times Roman,serif" font-size="14.00">election</text>
</g>
<!-- el_vnode&#45;&gt;has_1hop -->
<g id="edge20" class="edge"><title>el_vnode&#45;&gt;has_1hop</title>
<path fill="none" stroke="black" d="M716.22,-214.396C691.226,-222.678 659.306,-231.835 630,-236 569.277,-244.629 551.769,-249.762 492,-236 460.166,-228.67 427.232,-213.425 400.719,-198.933"/>
<polygon fill="black" stroke="black" points="402.422,-195.876 391.984,-194.06 399.012,-201.989 402.422,-195.876"/>
<text text-anchor="middle" x="561" y="-249.4" font-family="Times Roman,serif" font-size="14.00">not elected</text>
</g>
<!-- add_cnode -->
<g id="node10" class="node"><title>add_cnode</title>
<polygon fill="none" stroke="black" points="1006,-220 918,-220 918,-176 1006,-176 1006,-220"/>
<text text-anchor="middle" x="962" y="-203.4" font-family="Times Roman,serif" font-size="14.00">add cNode</text>
<text text-anchor="middle" x="962" y="-185.4" font-family="Times Roman,serif" font-size="14.00">to list</text>
</g>
<!-- el_vnode&#45;&gt;add_cnode -->
<g id="edge18" class="edge"><title>el_vnode&#45;&gt;add_cnode</title>
<path fill="none" stroke="black" d="M832.148,-198C857.037,-198 884.558,-198 907.835,-198"/>
<polygon fill="black" stroke="black" points="907.867,-201.5 917.867,-198 907.867,-194.5 907.867,-201.5"/>
<text text-anchor="middle" x="875" y="-203.4" font-family="Times Roman,serif" font-size="14.00">elected</text>
</g>
<!-- el_vnode_bis -->
<g id="node6" class="node"><title>el_vnode_bis</title>
<polygon fill="none" stroke="black" points="1509,-214 1434,-152 1509,-90 1584,-152 1509,-214"/>
<text text-anchor="middle" x="1509" y="-166.4" font-family="Times Roman,serif" font-size="14.00">vNode</text>
<text text-anchor="middle" x="1509" y="-148.4" font-family="Times Roman,serif" font-size="14.00">election,</text>
<text text-anchor="middle" x="1509" y="-130.4" font-family="Times Roman,serif" font-size="14.00">again</text>
</g>
<!-- vn_has_1hop -->
<g id="node8" class="node"><title>vn_has_1hop</title>
<polygon fill="none" stroke="black" points="1130,-173 1044,-111 1130,-49 1216,-111 1130,-173"/>
<text text-anchor="middle" x="1130" y="-125.4" font-family="Times Roman,serif" font-size="14.00">vNode;</text>
<text text-anchor="middle" x="1130" y="-107.4" font-family="Times Roman,serif" font-size="14.00">any 1&#45;hop</text>
<text text-anchor="middle" x="1130" y="-89.4" font-family="Times Roman,serif" font-size="14.00">left?</text>
</g>
<!-- el_vnode_bis&#45;&gt;vn_has_1hop -->
<g id="edge30" class="edge"><title>el_vnode_bis&#45;&gt;vn_has_1hop</title>
<path fill="none" stroke="black" d="M1465.03,-126.326C1449.99,-118.885 1432.73,-111.758 1416,-108 1348.7,-92.883 1270.23,-95.0547 1212.52,-100.204"/>
<polygon fill="black" stroke="black" points="1211.99,-96.7386 1202.36,-101.16 1212.65,-103.708 1211.99,-96.7386"/>
<text text-anchor="middle" x="1325" y="-113.4" font-family="Times Roman,serif" font-size="14.00">not elected for that cNode</text>
</g>
<!-- el_vnode_bis&#45;&gt;add_cnode -->
<g id="edge26" class="edge"><title>el_vnode_bis&#45;&gt;add_cnode</title>
<path fill="none" stroke="black" d="M1447.6,-163.461C1437.08,-165.166 1426.25,-166.763 1416,-168 1272.4,-185.334 1101.95,-193.22 1016.53,-196.305"/>
<polygon fill="black" stroke="black" points="1016.16,-192.815 1006.29,-196.666 1016.41,-199.811 1016.16,-192.815"/>
<text text-anchor="middle" x="1130" y="-200.4" font-family="Times Roman,serif" font-size="14.00">elected</text>
</g>
<!-- has_1hop&#45;&gt;sensing -->
<g id="edge8" class="edge"><title>has_1hop&#45;&gt;sensing</title>
<path fill="none" stroke="black" d="M396.55,-139.188C424.447,-125.255 459.857,-108.078 492,-94 499.876,-90.5504 508.344,-87.0615 516.556,-83.7889"/>
<polygon fill="black" stroke="black" points="518.006,-86.98 526.03,-80.0619 515.443,-80.4659 518.006,-86.98"/>
<text text-anchor="middle" x="462" y="-117.4" font-family="Times Roman,serif" font-size="14.00">no</text>
</g>
<!-- is_1hop_cnode -->
<g id="node9" class="node"><title>is_1hop_cnode</title>
<polygon fill="none" stroke="black" points="561,-227 492,-165 561,-103 630,-165 561,-227"/>
<text text-anchor="middle" x="561" y="-179.4" font-family="Times Roman,serif" font-size="14.00">is this</text>
<text text-anchor="middle" x="561" y="-161.4" font-family="Times Roman,serif" font-size="14.00">1&#45;hop a</text>
<text text-anchor="middle" x="561" y="-143.4" font-family="Times Roman,serif" font-size="14.00">cNode?</text>
</g>
<!-- has_1hop&#45;&gt;is_1hop_cnode -->
<g id="edge10" class="edge"><title>has_1hop&#45;&gt;is_1hop_cnode</title>
<path fill="none" stroke="black" d="M418.389,-155.015C436.534,-153.549 455.969,-152.865 474,-154 479.508,-154.347 485.2,-154.816 490.915,-155.366"/>
<polygon fill="black" stroke="black" points="490.881,-158.881 501.189,-156.434 491.605,-151.919 490.881,-158.881"/>
<text text-anchor="middle" x="462" y="-159.4" font-family="Times Roman,serif" font-size="14.00">yes</text>
</g>
<!-- vn_has_1hop&#45;&gt;vnode -->
<g id="edge32" class="edge"><title>vn_has_1hop&#45;&gt;vnode</title>
<path fill="none" stroke="black" d="M1185.81,-88.9866C1201.24,-83.4943 1218.12,-78.0293 1234,-74 1301.69,-56.8283 1380.58,-45.3414 1436.46,-38.5929"/>
<polygon fill="black" stroke="black" points="1437.11,-42.0415 1446.62,-37.3876 1436.28,-35.0902 1437.11,-42.0415"/>
<text text-anchor="middle" x="1325" y="-79.4" font-family="Times Roman,serif" font-size="14.00">no</text>
</g>
<!-- vn_has_1hop&#45;&gt;el_vnode_bis -->
<g id="edge24" class="edge"><title>vn_has_1hop&#45;&gt;el_vnode_bis</title>
<path fill="none" stroke="black" d="M1197.54,-124.359C1209.64,-126.463 1222.17,-128.45 1234,-130 1299.16,-138.536 1373.47,-144.242 1428.41,-147.699"/>
<polygon fill="black" stroke="black" points="1428.23,-151.195 1438.43,-148.319 1428.67,-144.209 1428.23,-151.195"/>
<text text-anchor="middle" x="1325" y="-151.4" font-family="Times Roman,serif" font-size="14.00">yes</text>
</g>
<!-- is_1hop_cnode&#45;&gt;el_vnode -->
<g id="edge14" class="edge"><title>is_1hop_cnode&#45;&gt;el_vnode</title>
<path fill="none" stroke="black" d="M619.386,-174.634C642.997,-178.53 670.376,-183.047 694.731,-187.066"/>
<polygon fill="black" stroke="black" points="694.171,-190.521 704.608,-188.695 695.311,-183.614 694.171,-190.521"/>
<text text-anchor="middle" x="660" y="-187.4" font-family="Times Roman,serif" font-size="14.00">yes</text>
</g>
<!-- is_1hop_cnode&#45;&gt;has_1hop -->
<g id="edge12" class="edge"><title>is_1hop_cnode&#45;&gt;has_1hop</title>
<path fill="none" stroke="black" d="M497.838,-170.681C489.82,-171.225 481.722,-171.69 474,-172 460.887,-172.527 447.023,-172.439 433.451,-171.993"/>
<polygon fill="black" stroke="black" points="433.276,-168.483 423.145,-171.586 432.999,-175.478 433.276,-168.483"/>
<text text-anchor="middle" x="462" y="-177.4" font-family="Times Roman,serif" font-size="14.00">no</text>
</g>
<!-- add_cnode&#45;&gt;vn_has_1hop -->
<g id="edge28" class="edge"><title>add_cnode&#45;&gt;vn_has_1hop</title>
<path fill="none" stroke="black" d="M1004.83,-175.821C1024.82,-165.469 1048.94,-152.977 1070.65,-141.733"/>
<polygon fill="black" stroke="black" points="1072.52,-144.708 1079.79,-137.001 1069.3,-138.492 1072.52,-144.708"/>
</g>
</g>
</svg>
