<?xml version="1.0" encoding="UTF-8" standalone="no"?>
<svg
   xmlns:dc="http://purl.org/dc/elements/1.1/"
   xmlns:cc="http://creativecommons.org/ns#"
   xmlns:rdf="http://www.w3.org/1999/02/22-rdf-syntax-ns#"
   xmlns:svg="http://www.w3.org/2000/svg"
   xmlns="http://www.w3.org/2000/svg"
   xmlns:sodipodi="http://sodipodi.sourceforge.net/DTD/sodipodi-0.dtd"
   xmlns:inkscape="http://www.inkscape.org/namespaces/inkscape"
   version="1.1"
   height="600"
   width="960"
   id="svg2"
   inkscape:version="0.48.5 r10040"
   sodipodi:docname="cloud30v2.pdf">
  <metadata
     id="metadata370">
    <rdf:RDF>
      <cc:Work
         rdf:about="">
        <dc:format>image/svg+xml</dc:format>
        <dc:type
           rdf:resource="http://purl.org/dc/dcmitype/StillImage" />
        <dc:title></dc:title>
      </cc:Work>
    </rdf:RDF>
  </metadata>
  <defs
     id="defs368" />
  <sodipodi:namedview
     pagecolor="#ffffff"
     bordercolor="#666666"
     borderopacity="1"
     objecttolerance="10"
     gridtolerance="10"
     guidetolerance="10"
     inkscape:pageopacity="0"
     inkscape:pageshadow="2"
     inkscape:window-width="1600"
     inkscape:window-height="880"
     id="namedview366"
     showgrid="false"
     inkscape:zoom="1.1047135"
     inkscape:cx="490.40994"
     inkscape:cy="300"
     inkscape:window-x="-2"
     inkscape:window-y="-3"
     inkscape:window-maximized="1"
     inkscape:current-layer="svg2" />
  <g
     id="g4" />
  <text
     id="text8"
     transform="matrix(0.8660254,-0.50000001,0.50000001,0.8660254,0,0)"
     style="font-size:31px;text-anchor:middle;fill:#5598d3;font-family:Impact;fill-opacity:1"
     x="0.43455061"
     y="515.24731">collision</text>
  <text
     id="text10"
     transform="matrix(0.8660254,-0.50000001,0.50000001,0.8660254,0,0)"
     style="font-size:16px;text-anchor:middle;fill:#aacbe9;font-family:Impact;fill-opacity:1"
     x="-115.38081"
     y="451.8454">compression</text>
  <text
     id="text12"
     transform="matrix(0.8660254,-0.50000001,0.50000001,0.8660254,0,0)"
     style="font-size:100px;text-anchor:middle;fill:#0065bd;font-family:Impact;fill-opacity:1"
     x="416.17484"
     y="605.164">cNode</text>
  <text
     id="text14"
     transform="matrix(0.8660254,-0.50000001,0.50000001,0.8660254,0,0)"
     style="font-size:76px;text-anchor:middle;fill:#5598d3;font-family:Impact;fill-opacity:1"
     x="194.00119"
     y="387.98007">cluster head</text>
  <text
     id="text16"
     transform="matrix(0.8660254,-0.50000001,0.50000001,0.8660254,0,0)"
     style="font-size:56px;text-anchor:middle;fill:#004078;font-family:Impact;fill-opacity:1"
     x="461.73444"
     y="652.2525">joueur</text>
  <text
     id="text18"
     transform="matrix(0.8660254,-0.50000001,0.50000001,0.8660254,0,0)"
     style="font-size:48px;text-anchor:middle;fill:#aacbe9;font-family:Impact;fill-opacity:1"
     x="361.50049"
     y="515.86273">sécurité</text>
  <text
     id="text20"
     transform="matrix(0.8660254,-0.50000001,0.50000001,0.8660254,0,0)"
     style="font-size:47px;text-anchor:middle;fill:#637939;font-family:Impact"
     x="334.63705"
     y="448.3916">station de base</text>
  <text
     id="text22"
     transform="matrix(0.8660254,-0.50000001,0.50000001,0.8660254,0,0)"
     style="font-size:43px;text-anchor:middle;fill:#8ca252;font-family:Impact"
     x="85.015968"
     y="322.74802">routage</text>
  <text
     id="text24"
     transform="matrix(0.8660254,-0.50000001,0.50000001,0.8660254,0,0)"
     style="font-size:42px;text-anchor:middle;fill:#b5cf6b;font-family:Impact"
     x="204.40758"
     y="557.95569">sélection</text>
  <text
     id="text26"
     transform="matrix(0.8660254,-0.50000001,0.50000001,0.8660254,0,0)"
     style="font-size:40px;text-anchor:middle;fill:#cedb9c;font-family:Impact"
     x="198.38646"
     y="322.38458">gain</text>
  <text
     id="text28"
     transform="matrix(0.8660254,-0.50000001,0.50000001,0.8660254,0,0)"
     style="font-size:40px;text-anchor:middle;fill:#8c6d31;font-family:Impact"
     x="247.88576"
     y="654.64923">vNode</text>
  <text
     id="text30"
     transform="matrix(0.8660254,-0.50000001,0.50000001,0.8660254,0,0)"
     style="font-size:39px;text-anchor:middle;fill:#bd9e39;font-family:Impact"
     x="141.73067"
     y="594.51526">déni de service</text>
  <text
     id="text32"
     transform="matrix(0.8660254,-0.50000001,0.50000001,0.8660254,0,0)"
     style="font-size:35px;text-anchor:middle;fill:#e7cb94;font-family:Impact"
     x="563.05493"
     y="516.76019">renouvellement</text>
  <text
     id="text34"
     transform="matrix(0.8660254,-0.50000001,0.50000001,0.8660254,0,0)"
     style="font-size:34px;text-anchor:middle;fill:#843c39;font-family:Impact"
     x="520.4787"
     y="412.50446">authentification</text>
  <text
     id="text36"
     transform="matrix(0.8660254,-0.50000001,0.50000001,0.8660254,0,0)"
     style="font-size:34px;text-anchor:middle;fill:#ad494a;font-family:Impact"
     x="566.88251"
     y="632.13074">jeu</text>
  <text
     id="text38"
     transform="matrix(0.8660254,-0.50000001,0.50000001,0.8660254,0,0)"
     style="font-size:33px;text-anchor:middle;fill:#d6616b;font-family:Impact"
     x="146.19289"
     y="288.7865">route</text>
  <text
     id="text40"
     transform="matrix(0.8660254,-0.50000001,0.50000001,0.8660254,0,0)"
     style="font-size:32px;text-anchor:middle;fill:#e7969c;font-family:Impact"
     x="334.78253"
     y="722.13965">chiffrement</text>
  <text
     id="text42"
     transform="matrix(0.8660254,-0.50000001,0.50000001,0.8660254,0,0)"
     style="font-size:31px;text-anchor:middle;fill:#7b4173;font-family:Impact"
     x="222.25694"
     y="477.03967">brouillage</text>
  <text
     id="text44"
     transform="matrix(0.8660254,-0.50000001,0.50000001,0.8660254,0,0)"
     style="font-size:31px;text-anchor:middle;fill:#a55194;font-family:Impact"
     x="84.353134"
     y="415.89609">confiance</text>
  <text
     id="text46"
     transform="matrix(0.8660254,-0.50000001,0.50000001,0.8660254,0,0)"
     style="font-size:31px;text-anchor:middle;fill:#004078;font-family:Impact;fill-opacity:1"
     x="55.879414"
     y="487.21402">mobilité</text>
  <text
     id="text48"
     transform="matrix(0.8660254,-0.50000001,0.50000001,0.8660254,0,0)"
     style="font-size:31px;text-anchor:middle;fill:#de9ed6;font-family:Impact"
     x="67.618507"
     y="552.88129">élection</text>
  <text
     id="text50"
     transform="matrix(0.8660254,-0.50000001,0.50000001,0.8660254,0,0)"
     style="font-size:30px;text-anchor:middle;fill:#0065bd;font-family:Impact;fill-opacity:1"
     x="486.77292"
     y="488.88458">LEACH</text>
  <text
     id="text52"
     transform="matrix(0.8660254,-0.50000001,0.50000001,0.8660254,0,0)"
     style="font-size:30px;text-anchor:middle;fill:#5598d3;font-family:Impact;fill-opacity:1"
     x="160.96083"
     y="259.20767">stratégie</text>
  <text
     id="text54"
     transform="matrix(0.8660254,-0.50000001,0.50000001,0.8660254,0,0)"
     style="font-size:29px;text-anchor:middle;fill:#004078;font-family:Impact;fill-opacity:1"
     x="148.88388"
     y="520.12555">graphe de jeu</text>
  <text
     id="text56"
     transform="matrix(0.8660254,-0.50000001,0.50000001,0.8660254,0,0)"
     style="font-size:28px;text-anchor:middle;fill:#aacbe9;font-family:Impact;fill-opacity:1"
     x="47.862755"
     y="449.09927">sélection aléatoire</text>
  <text
     id="text58"
     transform="matrix(0.8660254,-0.50000001,0.50000001,0.8660254,0,0)"
     style="font-size:28px;text-anchor:middle;fill:#637939;font-family:Impact"
     x="295.99863"
     y="323.31537">intégrité</text>
  <text
     id="text60"
     transform="matrix(0.8660254,-0.50000001,0.50000001,0.8660254,0,0)"
     style="font-size:28px;text-anchor:middle;fill:#8ca252;font-family:Impact"
     x="21.430088"
     y="284.88199">modélisation</text>
  <text
     id="text62"
     transform="matrix(0.8660254,-0.50000001,0.50000001,0.8660254,0,0)"
     style="font-size:27px;text-anchor:middle;fill:#b5cf6b;font-family:Impact"
     x="81.321701"
     y="623.14667">stratégie gagnante</text>
  <text
     id="text64"
     transform="matrix(0.8660254,-0.50000001,0.50000001,0.8660254,0,0)"
     style="font-size:26px;text-anchor:middle;fill:#cedb9c;font-family:Impact"
     x="-31.024395"
     y="337.73581">RPSGe</text>
  <text
     id="text66"
     transform="matrix(0.8660254,-0.50000001,0.50000001,0.8660254,0,0)"
     style="font-size:26px;text-anchor:middle;fill:#8c6d31;font-family:Impact"
     x="-60.167988"
     y="420.21402">clusterisation</text>
  <text
     id="text68"
     transform="matrix(0.8660254,-0.50000001,0.50000001,0.8660254,0,0)"
     style="font-size:26px;text-anchor:middle;fill:#bd9e39;font-family:Impact"
     x="423.72482"
     y="748.0871">confidentialité</text>
  <text
     id="text70"
     transform="matrix(0.8660254,-0.50000001,0.50000001,0.8660254,0,0)"
     style="font-size:26px;text-anchor:middle;fill:#e7ba52;font-family:Impact"
     x="122.989"
     y="652.97681">exécution</text>
  <text
     id="text72"
     transform="matrix(0.8660254,-0.50000001,0.50000001,0.8660254,0,0)"
     style="font-size:26px;text-anchor:middle;fill:#e7cb94;font-family:Impact"
     x="372.60818"
     y="472.62366">exclusion</text>
  <text
     id="text74"
     transform="matrix(0.8660254,-0.50000001,0.50000001,0.8660254,0,0)"
     style="font-size:26px;text-anchor:middle;fill:#843c39;font-family:Impact"
     x="266.94537"
     y="747.63708">gain moyen</text>
  <text
     id="text76"
     transform="matrix(0.8660254,-0.50000001,0.50000001,0.8660254,0,0)"
     style="font-size:26px;text-anchor:middle;fill:#ad494a;font-family:Impact"
     x="660.4447"
     y="484.07626">élection démocratique</text>
  <text
     id="text78"
     transform="matrix(0.8660254,-0.50000001,0.50000001,0.8660254,0,0)"
     style="font-size:25px;text-anchor:middle;fill:#d6616b;font-family:Impact"
     x="178.50119"
     y="414.82687">LSAH</text>
  <text
     id="text80"
     transform="matrix(0.8660254,-0.50000001,0.50000001,0.8660254,0,0)"
     style="font-size:25px;text-anchor:middle;fill:#e7969c;font-family:Impact"
     x="49.090343"
     y="256.97302">résilience</text>
  <text
     id="text82"
     transform="matrix(0.8660254,-0.50000001,0.50000001,0.8660254,0,0)"
     style="font-size:24px;text-anchor:middle;fill:#7b4173;font-family:Impact"
     x="238.87683"
     y="282.25317">altération</text>
  <text
     id="text84"
     transform="matrix(0.8660254,-0.50000001,0.50000001,0.8660254,0,0)"
     style="font-size:24px;text-anchor:middle;fill:#a55194;font-family:Impact"
     x="203.28134"
     y="225.90639">sélection selon lénergie résid</text>
  <text
     id="text86"
     transform="matrix(0.8660254,-0.50000001,0.50000001,0.8660254,0,0)"
     style="font-size:23px;text-anchor:middle;fill:#ce6dbd;font-family:Impact"
     x="288.49158"
     y="254.31793">MAC couche</text>
  <text
     id="text88"
     transform="matrix(0.8660254,-0.50000001,0.50000001,0.8660254,0,0)"
     style="font-size:23px;text-anchor:middle;fill:#de9ed6;font-family:Impact"
     x="-77.043633"
     y="477.44348">cryptographie</text>
  <text
     id="text90"
     transform="matrix(0.8660254,-0.50000001,0.50000001,0.8660254,0,0)"
     style="font-size:23px;text-anchor:middle;fill:#0065bd;font-family:Impact;fill-opacity:1"
     x="344.99792"
     y="656.44604">rejeu</text>
  <text
     id="text92"
     transform="matrix(0.8660254,-0.50000001,0.50000001,0.8660254,0,0)"
     style="font-size:23px;text-anchor:middle;fill:#5598d3;font-family:Impact;fill-opacity:1"
     x="444.50049"
     y="372.10254">réputation</text>
  <text
     id="text94"
     transform="matrix(0.8660254,-0.50000001,0.50000001,0.8660254,0,0)"
     style="font-size:22px;text-anchor:middle;fill:#004078;font-family:Impact;fill-opacity:1"
     x="233.17296"
     y="616.13257">RPSG</text>
  <text
     id="text96"
     transform="matrix(0.8660254,-0.50000001,0.50000001,0.8660254,0,0)"
     style="font-size:22px;text-anchor:middle;fill:#aacbe9;font-family:Impact;fill-opacity:1"
     x="492.56198"
     y="720.8576">accaparement</text>
  <text
     id="text98"
     transform="matrix(0.8660254,-0.50000001,0.50000001,0.8660254,0,0)"
     style="font-size:22px;text-anchor:middle;fill:#637939;font-family:Impact"
     x="539.92352"
     y="446.82498">agrégation</text>
  <text
     id="text100"
     transform="matrix(0.8660254,-0.50000001,0.50000001,0.8660254,0,0)"
     style="font-size:22px;text-anchor:middle;fill:#8ca252;font-family:Impact"
     x="463.06198"
     y="771.95312">model checking</text>
  <text
     id="text102"
     transform="matrix(0.8660254,-0.50000001,0.50000001,0.8660254,0,0)"
     style="font-size:22px;text-anchor:middle;fill:#cedb9c;font-family:Impact"
     x="307.76398"
     y="410.93713">sureté</text>
  <text
     id="text104"
     transform="matrix(0.8660254,-0.50000001,0.50000001,0.8660254,0,0)"
     style="font-size:21px;text-anchor:middle;fill:#8c6d31;font-family:Impact"
     x="260.46014"
     y="504.86981">ALH</text>
  <text
     id="text106"
     transform="matrix(0.8660254,-0.50000001,0.50000001,0.8660254,0,0)"
     style="font-size:21px;text-anchor:middle;fill:#bd9e39;font-family:Impact"
     x="371.76141"
     y="412.09033">TCP</text>
  <text
     id="text108"
     transform="matrix(0.8660254,-0.50000001,0.50000001,0.8660254,0,0)"
     style="font-size:21px;text-anchor:middle;fill:#e7ba52;font-family:Impact"
     x="175.7384"
     y="199.61217">architecture de sécurité</text>
  <text
     id="text110"
     transform="matrix(0.8660254,-0.50000001,0.50000001,0.8660254,0,0)"
     style="font-size:21px;text-anchor:middle;fill:#e7cb94;font-family:Impact"
     x="-86.478882"
     y="395.7858">signature dattaque</text>
  <text
     id="text112"
     transform="matrix(0.8660254,-0.50000001,0.50000001,0.8660254,0,0)"
     style="font-size:21px;text-anchor:middle;fill:#843c39;font-family:Impact"
     x="395.47681"
     y="323.0141">trou noir</text>
  <text
     id="text114"
     transform="matrix(0.8660254,-0.50000001,0.50000001,0.8660254,0,0)"
     style="font-size:20px;text-anchor:middle;fill:#ad494a;font-family:Impact"
     x="578.20557"
     y="540.51855">IEEE 80211</text>
  <text
     id="text116"
     transform="matrix(0.8660254,-0.50000001,0.50000001,0.8660254,0,0)"
     style="font-size:20px;text-anchor:middle;fill:#d6616b;font-family:Impact"
     x="332.0249"
     y="282.91602">anomalie</text>
  <text
     id="text118"
     transform="matrix(0.8660254,-0.50000001,0.50000001,0.8660254,0,0)"
     style="font-size:20px;text-anchor:middle;fill:#e7969c;font-family:Impact"
     x="67.305733"
     y="177.42305">autoélection</text>
  <text
     id="text120"
     transform="matrix(0.8660254,-0.50000001,0.50000001,0.8660254,0,0)"
     style="font-size:20px;text-anchor:middle;fill:#7b4173;font-family:Impact"
     x="608.48059"
     y="566.08075">configuration</text>
  <text
     id="text122"
     transform="matrix(0.8660254,-0.50000001,0.50000001,0.8660254,0,0)"
     style="font-size:20px;text-anchor:middle;fill:#a55194;font-family:Impact"
     x="-38.478878"
     y="312.64737">congestion</text>
  <text
     id="text124"
     transform="matrix(0.8660254,-0.50000001,0.50000001,0.8660254,0,0)"
     style="font-size:20px;text-anchor:middle;fill:#ce6dbd;font-family:Impact"
     x="480.08896"
     y="346.46152">désynchronisation</text>
  <text
     id="text126"
     transform="matrix(0.8660254,-0.50000001,0.50000001,0.8660254,0,0)"
     style="font-size:20px;text-anchor:middle;fill:#de9ed6;font-family:Impact"
     x="372.04791"
     y="765.59412">ns</text>
  <text
     id="text128"
     transform="matrix(0.8660254,-0.50000001,0.50000001,0.8660254,0,0)"
     style="font-size:20px;text-anchor:middle;fill:#0065bd;font-family:Impact;fill-opacity:1"
     x="315.49088"
     y="625.55377">puits</text>
  <text
     id="text130"
     transform="matrix(0.8660254,-0.50000001,0.50000001,0.8660254,0,0)"
     style="font-size:19px;text-anchor:middle;fill:#5598d3;font-family:Impact;fill-opacity:1"
     x="150.90123"
     y="150.63139">destruction physique</text>
  <text
     id="text132"
     transform="matrix(0.8660254,-0.50000001,0.50000001,0.8660254,0,0)"
     style="font-size:19px;text-anchor:middle;fill:#004078;font-family:Impact;fill-opacity:1"
     x="-27.325665"
     y="231.32944">déluge de paquets</text>
  <text
     id="text134"
     transform="matrix(0.8660254,-0.50000001,0.50000001,0.8660254,0,0)"
     style="font-size:19px;text-anchor:middle;fill:#aacbe9;font-family:Impact;fill-opacity:1"
     x="621.2652"
     y="591.93713">formule de gain</text>
  <text
     id="text136"
     transform="matrix(0.8660254,-0.50000001,0.50000001,0.8660254,0,0)"
     style="font-size:19px;text-anchor:middle;fill:#637939;font-family:Impact"
     x="218.2159"
     y="716.039">injection</text>
  <text
     id="text138"
     transform="matrix(0.8660254,-0.50000001,0.50000001,0.8660254,0,0)"
     style="font-size:19px;text-anchor:middle;fill:#8ca252;font-family:Impact"
     x="406.97681"
     y="303.09549">signature</text>
  <text
     id="text140"
     transform="matrix(0.8660254,-0.50000001,0.50000001,0.8660254,0,0)"
     style="font-size:19px;text-anchor:middle;fill:#b5cf6b;font-family:Impact"
     x="495.59531"
     y="819.60376">stratégie à mémoire finie</text>
  <text
     id="text142"
     transform="matrix(0.8660254,-0.50000001,0.50000001,0.8660254,0,0)"
     style="font-size:19px;text-anchor:middle;fill:#cedb9c;font-family:Impact"
     x="291.65817"
     y="768.83319">théorie des jeux</text>
  <text
     id="text144"
     transform="matrix(0.8660254,-0.50000001,0.50000001,0.8660254,0,0)"
     style="font-size:18px;text-anchor:middle;fill:#8c6d31;font-family:Impact"
     x="133.50119"
     y="492.76913">TCPIP</text>
  <text
     id="text146"
     transform="matrix(0.8660254,-0.50000001,0.50000001,0.8660254,0,0)"
     style="font-size:18px;text-anchor:middle;fill:#bd9e39;font-family:Impact"
     x="-78.66095"
     y="534.24475">brouillage intelligent</text>
  <text
     id="text148"
     transform="matrix(0.8660254,-0.50000001,0.50000001,0.8660254,0,0)"
     style="font-size:18px;text-anchor:middle;fill:#e7ba52;font-family:Impact"
     x="-73.572495"
     y="561.43127">comportement cupide</text>
  <text
     id="text150"
     transform="matrix(0.8660254,-0.50000001,0.50000001,0.8660254,0,0)"
     style="font-size:18px;text-anchor:middle;fill:#e7cb94;font-family:Impact"
     x="-73.675034"
     y="361.60889">couche physique</text>
  <text
     id="text152"
     transform="matrix(0.8660254,-0.50000001,0.50000001,0.8660254,0,0)"
     style="font-size:18px;text-anchor:middle;fill:#843c39;font-family:Impact"
     x="-38.565449"
     y="582.7973">falsification</text>
  <text
     id="text154"
     transform="matrix(0.8660254,-0.50000001,0.50000001,0.8660254,0,0)"
     style="font-size:18px;text-anchor:middle;fill:#ad494a;font-family:Impact"
     x="-47.289764"
     y="257.90826">trou de ver</text>
  <text
     id="text156"
     transform="matrix(0.8660254,-0.50000001,0.50000001,0.8660254,0,0)"
     style="font-size:17px;text-anchor:middle;fill:#d6616b;font-family:Impact"
     x="427.15817"
     y="534.14032">CSMACA</text>
  <text
     id="text158"
     transform="matrix(0.8660254,-0.50000001,0.50000001,0.8660254,0,0)"
     style="font-size:17px;text-anchor:middle;fill:#e7969c;font-family:Impact"
     x="515.29218"
     y="379.48779">OLSR</text>
  <text
     id="text160"
     transform="matrix(0.8660254,-0.50000001,0.50000001,0.8660254,0,0)"
     style="font-size:17px;text-anchor:middle;fill:#7b4173;font-family:Impact"
     x="565.04272"
     y="655.31726">TinySec</text>
  <text
     id="text162"
     transform="matrix(0.8660254,-0.50000001,0.50000001,0.8660254,0,0)"
     style="font-size:17px;text-anchor:middle;fill:#a55194;font-family:Impact"
     x="430.01648"
     y="867.18964">antenne directionnelle</text>
  <text
     id="text164"
     transform="matrix(0.8660254,-0.50000001,0.50000001,0.8660254,0,0)"
     style="font-size:17px;text-anchor:middle;fill:#ce6dbd;font-family:Impact"
     x="72.85125"
     y="129.81793">clusterisation hiérarchique</text>
  <text
     id="text166"
     transform="matrix(0.8660254,-0.50000001,0.50000001,0.8660254,0,0)"
     style="font-size:17px;text-anchor:middle;fill:#de9ed6;font-family:Impact"
     x="94.828743"
     y="681.75177">gestion des clés</text>
  <text
     id="text168"
     transform="matrix(0.8660254,-0.50000001,0.50000001,0.8660254,0,0)"
     style="font-size:17px;text-anchor:middle;fill:#0065bd;font-family:Impact;fill-opacity:1"
     x="-20.387842"
     y="205.31277">élection dynamique</text>
  <text
     id="text170"
     transform="matrix(0.8660254,-0.50000001,0.50000001,0.8660254,0,0)"
     style="font-size:16px;text-anchor:middle;fill:#5598d3;font-family:Impact;fill-opacity:1"
     x="251.59669"
     y="406.22174">MANET</text>
  <text
     id="text172"
     transform="matrix(0.8660254,-0.50000001,0.50000001,0.8660254,0,0)"
     style="font-size:16px;text-anchor:middle;fill:#004078;font-family:Impact;fill-opacity:1"
     x="-93.753868"
     y="330.38644">ZigBee</text>
  <text
     id="text174"
     transform="matrix(0.8660254,-0.50000001,0.50000001,0.8660254,0,0)"
     style="font-size:16px;text-anchor:middle;fill:#aacbe9;font-family:Impact;fill-opacity:1"
     x="357.99792"
     y="633.92938">arène</text>
  <text
     id="text176"
     transform="matrix(0.8660254,-0.50000001,0.50000001,0.8660254,0,0)"
     style="font-size:16px;text-anchor:middle;fill:#637939;font-family:Impact"
     x="-81.615433"
     y="501.36206">boucle</text>
  <text
     id="text178"
     transform="matrix(0.8660254,-0.50000001,0.50000001,0.8660254,0,0)"
     style="font-size:16px;text-anchor:middle;fill:#8ca252;font-family:Impact"
     x="545.79144"
     y="744.66144">condensat</text>
  <text
     id="text180"
     transform="matrix(0.8660254,-0.50000001,0.50000001,0.8660254,0,0)"
     style="font-size:16px;text-anchor:middle;fill:#b5cf6b;font-family:Impact"
     x="644.37994"
     y="609.90125">conjonction</text>
  <text
     id="text182"
     transform="matrix(0.8660254,-0.50000001,0.50000001,0.8660254,0,0)"
     style="font-size:16px;text-anchor:middle;fill:#cedb9c;font-family:Impact"
     x="443.93506"
     y="889.08191">couche transport</text>
  <text
     id="text184"
     transform="matrix(0.8660254,-0.50000001,0.50000001,0.8660254,0,0)"
     style="font-size:16px;text-anchor:middle;fill:#bd9e39;font-family:Impact"
     x="190.47044"
     y="178.0955">réseau clusterisé</text>
  <text
     id="text186"
     transform="matrix(0.8660254,-0.50000001,0.50000001,0.8660254,0,0)"
     style="font-size:16px;text-anchor:middle;fill:#e7cb94;font-family:Impact"
     x="404.5845"
     y="283.23911">trou gris</text>
  <text
     id="text188"
     transform="matrix(0.8660254,-0.50000001,0.50000001,0.8660254,0,0)"
     style="font-size:16px;text-anchor:middle;fill:#843c39;font-family:Impact"
     x="698.54016"
     y="536.09296">usurpation didentité</text>
  <text
     id="text190"
     transform="matrix(0.8660254,-0.50000001,0.50000001,0.8660254,0,0)"
     style="font-size:15px;text-anchor:middle;fill:#ad494a;font-family:Impact"
     x="225.28322"
     y="493.798">AODV</text>
  <text
     id="text192"
     transform="matrix(0.8660254,-0.50000001,0.50000001,0.8660254,0,0)"
     style="font-size:15px;text-anchor:middle;fill:#d6616b;font-family:Impact"
     x="261.12039"
     y="523.7262">CDMA</text>
  <text
     id="text194"
     transform="matrix(0.8660254,-0.50000001,0.50000001,0.8660254,0,0)"
     style="font-size:15px;text-anchor:middle;fill:#e7969c;font-family:Impact"
     x="483.06268"
     y="319.31088">IEEE 802154</text>
  <text
     id="text196"
     transform="matrix(0.8660254,-0.50000001,0.50000001,0.8660254,0,0)"
     style="font-size:15px;text-anchor:middle;fill:#7b4173;font-family:Impact"
     x="131.20181"
     y="702.75177">MAC code</text>
  <text
     id="text198"
     transform="matrix(0.8660254,-0.50000001,0.50000001,0.8660254,0,0)"
     style="font-size:15px;text-anchor:middle;fill:#a55194;font-family:Impact"
     x="135.20697"
     y="471.81467">SNEP</text>
  <text
     id="text200"
     transform="matrix(0.8660254,-0.50000001,0.50000001,0.8660254,0,0)"
     style="font-size:15px;text-anchor:middle;fill:#ce6dbd;font-family:Impact"
     x="310.67484"
     y="787.89539">TinyKey</text>
  <text
     id="text202"
     transform="matrix(0.8660254,-0.50000001,0.50000001,0.8660254,0,0)"
     style="font-size:15px;text-anchor:middle;fill:#de9ed6;font-family:Impact"
     x="308.95755"
     y="532.86981">WANET</text>
  <text
     id="text204"
     transform="matrix(0.8660254,-0.50000001,0.50000001,0.8660254,0,0)"
     style="font-size:15px;text-anchor:middle;fill:#0065bd;font-family:Impact;fill-opacity:1"
     x="345.54791"
     y="811.49347">attaque Sybil</text>
  <text
     id="text206"
     transform="matrix(0.8660254,-0.50000001,0.50000001,0.8660254,0,0)"
     style="font-size:15px;text-anchor:middle;fill:#5598d3;font-family:Impact;fill-opacity:1"
     x="659.95428"
     y="454.92563">correction derreur</text>
  <text
     id="text208"
     transform="matrix(0.8660254,-0.50000001,0.50000001,0.8660254,0,0)"
     style="font-size:15px;text-anchor:middle;fill:#004078;font-family:Impact;fill-opacity:1"
     x="666.99017"
     y="434.73911">couche application</text>
  <text
     id="text210"
     transform="matrix(0.8660254,-0.50000001,0.50000001,0.8660254,0,0)"
     style="font-size:15px;text-anchor:middle;fill:#aacbe9;font-family:Impact;fill-opacity:1"
     x="249.40947"
     y="786.01013">gNodes</text>
  <text
     id="text212"
     transform="matrix(0.8660254,-0.50000001,0.50000001,0.8660254,0,0)"
     style="font-size:15px;text-anchor:middle;fill:#637939;font-family:Impact"
     x="613.39661"
     y="715.56598">jeu quantitatif</text>
  <text
     id="text214"
     transform="matrix(0.8660254,-0.50000001,0.50000001,0.8660254,0,0)"
     style="font-size:15px;text-anchor:middle;fill:#8ca252;font-family:Impact"
     x="12.752481"
     y="645.91205">nonrépudiation</text>
  <text
     id="text216"
     transform="matrix(0.8660254,-0.50000001,0.50000001,0.8660254,0,0)"
     style="font-size:15px;text-anchor:middle;fill:#b5cf6b;font-family:Impact"
     x="612.88953"
     y="634.44415">partie</text>
  <text
     id="text218"
     transform="matrix(0.8660254,-0.50000001,0.50000001,0.8660254,0,0)"
     style="font-size:15px;text-anchor:middle;fill:#cedb9c;font-family:Impact"
     x="56.674335"
     y="85.837166">privation de sommeil</text>
  <text
     id="text220"
     transform="matrix(0.8660254,-0.50000001,0.50000001,0.8660254,0,0)"
     style="font-size:15px;text-anchor:middle;fill:#8c6d31;font-family:Impact"
     x="-38.538479"
     y="186.7506">redondance</text>
  <text
     id="text222"
     transform="matrix(0.8660254,-0.50000001,0.50000001,0.8660254,0,0)"
     style="font-size:15px;text-anchor:middle;fill:#bd9e39;font-family:Impact"
     x="-5.7801466"
     y="156.01151">sécurité système</text>
  <text
     id="text224"
     transform="matrix(0.8660254,-0.50000001,0.50000001,0.8660254,0,0)"
     style="font-size:13px;text-anchor:middle;fill:#e7ba52;font-family:Impact"
     x="-88.306427"
     y="276.9512">µTESLA</text>
  <text
     id="text226"
     transform="matrix(0.8660254,-0.50000001,0.50000001,0.8660254,0,0)"
     style="font-size:13px;text-anchor:middle;fill:#e7cb94;font-family:Impact"
     x="392.89795"
     y="261.48077">6LoWPAN</text>
  <text
     id="text228"
     transform="matrix(0.8660254,-0.50000001,0.50000001,0.8660254,0,0)"
     style="font-size:13px;text-anchor:middle;fill:#843c39;font-family:Impact"
     x="176.49158"
     y="448.30762">IP</text>
  <text
     id="text230"
     transform="matrix(0.8660254,-0.50000001,0.50000001,0.8660254,0,0)"
     style="font-size:13px;text-anchor:middle;fill:#ad494a;font-family:Impact"
     x="302.54858"
     y="467.97046">LEAP</text>
  <text
     id="text232"
     transform="matrix(0.8660254,-0.50000001,0.50000001,0.8660254,0,0)"
     style="font-size:13px;text-anchor:middle;fill:#d6616b;font-family:Impact"
     x="247.00119"
     y="296.18137">LLC</text>
  <text
     id="text234"
     transform="matrix(0.8660254,-0.50000001,0.50000001,0.8660254,0,0)"
     style="font-size:13px;text-anchor:middle;fill:#e7969c;font-family:Impact"
     x="-9.9866114"
     y="599.2973">SPINS</text>
  <text
     id="text236"
     transform="matrix(0.8660254,-0.50000001,0.50000001,0.8660254,0,0)"
     style="font-size:13px;text-anchor:middle;fill:#7b4173;font-family:Impact"
     x="147.71848"
     y="726.1441">coopération</text>
  <text
     id="text238"
     transform="matrix(0.8660254,-0.50000001,0.50000001,0.8660254,0,0)"
     style="font-size:13px;text-anchor:middle;fill:#a55194;font-family:Impact"
     x="-175.57437"
     y="432.10373">couche réseau</text>
  <text
     id="text240"
     transform="matrix(0.8660254,-0.50000001,0.50000001,0.8660254,0,0)"
     style="font-size:13px;text-anchor:middle;fill:#de9ed6;font-family:Impact"
     x="643.06647"
     y="654.17621">disponibilité</text>
  <text
     id="text242"
     transform="matrix(0.8660254,-0.50000001,0.50000001,0.8660254,0,0)"
     style="font-size:13px;text-anchor:middle;fill:#0065bd;font-family:Impact;fill-opacity:1"
     x="589.72668"
     y="766.56335">partage de secret</text>
  <text
     id="text244"
     transform="matrix(0.8660254,-0.50000001,0.50000001,0.8660254,0,0)"
     style="font-size:13px;text-anchor:middle;fill:#5598d3;font-family:Impact;fill-opacity:1"
     x="-85.144287"
     y="597.47424">sauts de fréquence</text>
  <text
     id="text246"
     transform="matrix(0.8660254,-0.50000001,0.50000001,0.8660254,0,0)"
     style="font-size:13px;text-anchor:middle;fill:#004078;font-family:Impact;fill-opacity:1"
     x="560.27289"
     y="361.57886">somme de contrôle</text>
  <text
     id="text248"
     transform="matrix(0.8660254,-0.50000001,0.50000001,0.8660254,0,0)"
     style="font-size:13px;text-anchor:middle;fill:#aacbe9;font-family:Impact;fill-opacity:1"
     x="-14.780147"
     y="171.59996">trou onoff</text>
  <text
     id="text250"
     transform="matrix(0.8660254,-0.50000001,0.50000001,0.8660254,0,0)"
     style="font-size:12px;text-anchor:middle;fill:#637939;font-family:Impact"
     x="594.56647"
     y="738.18066">AES</text>
  <text
     id="text252"
     transform="matrix(0.8660254,-0.50000001,0.50000001,0.8660254,0,0)"
     style="font-size:12px;text-anchor:middle;fill:#8ca252;font-family:Impact"
     x="171.43127"
     y="749.07233">Bluetooth</text>
  <text
     id="text254"
     transform="matrix(0.8660254,-0.50000001,0.50000001,0.8660254,0,0)"
     style="font-size:12px;text-anchor:middle;fill:#b5cf6b;font-family:Impact"
     x="272.88577"
     y="611.34796">CMTC</text>
  <text
     id="text256"
     transform="matrix(0.8660254,-0.50000001,0.50000001,0.8660254,0,0)"
     style="font-size:12px;text-anchor:middle;fill:#cedb9c;font-family:Impact"
     x="411.81396"
     y="386.71729">CSMA</text>
  <text
     id="text258"
     transform="matrix(0.8660254,-0.50000001,0.50000001,0.8660254,0,0)"
     style="font-size:12px;text-anchor:middle;fill:#8c6d31;font-family:Impact"
     x="192.80246"
     y="490.05634">HEED</text>
  <text
     id="text260"
     transform="matrix(0.8660254,-0.50000001,0.50000001,0.8660254,0,0)"
     style="font-size:12px;text-anchor:middle;fill:#bd9e39;font-family:Impact"
     x="447.2037"
     y="461.42047">HIDS</text>
  <text
     id="text262"
     transform="matrix(0.8660254,-0.50000001,0.50000001,0.8660254,0,0)"
     style="font-size:12px;text-anchor:middle;fill:#e7ba52;font-family:Impact"
     x="595.41394"
     y="380.71283">IEEE 802151</text>
  <text
     id="text264"
     transform="matrix(0.8660254,-0.50000001,0.50000001,0.8660254,0,0)"
     style="font-size:12px;text-anchor:middle;fill:#e7cb94;font-family:Impact"
     x="372.64926"
     y="240.55257">Internet</text>
  <text
     id="text266"
     transform="matrix(0.8660254,-0.50000001,0.50000001,0.8660254,0,0)"
     style="font-size:12px;text-anchor:middle;fill:#843c39;font-family:Impact"
     x="-103.67245"
     y="301.56595">LEAP+</text>
  <text
     id="text268"
     transform="matrix(0.8660254,-0.50000001,0.50000001,0.8660254,0,0)"
     style="font-size:12px;text-anchor:middle;fill:#ad494a;font-family:Impact"
     x="40.965294"
     y="661.04602">MiniSec</text>
  <text
     id="text270"
     transform="matrix(0.8660254,-0.50000001,0.50000001,0.8660254,0,0)"
     style="font-size:12px;text-anchor:middle;fill:#d6616b;font-family:Impact"
     x="162.93901"
     y="427.78134">TDMA</text>
  <text
     id="text272"
     transform="matrix(0.8660254,-0.50000001,0.50000001,0.8660254,0,0)"
     style="font-size:12px;text-anchor:middle;fill:#e7969c;font-family:Impact"
     x="14.810195"
     y="462.34799">WiFi</text>
  <text
     id="text274"
     transform="matrix(0.8660254,-0.50000001,0.50000001,0.8660254,0,0)"
     style="font-size:12px;text-anchor:middle;fill:#7b4173;font-family:Impact"
     x="660.16455"
     y="630.56146">coalition</text>
  <text
     id="text276"
     transform="matrix(0.8660254,-0.50000001,0.50000001,0.8660254,0,0)"
     style="font-size:12px;text-anchor:middle;fill:#a55194;font-family:Impact"
     x="551.31519"
     y="869.09412">extensibilité</text>
  <text
     id="text278"
     transform="matrix(0.8660254,-0.50000001,0.50000001,0.8660254,0,0)"
     style="font-size:12px;text-anchor:middle;fill:#ce6dbd;font-family:Impact"
     x="-133.86861"
     y="341.86722">historique</text>
  <text
     id="text280"
     transform="matrix(0.8660254,-0.50000001,0.50000001,0.8660254,0,0)"
     style="font-size:12px;text-anchor:middle;fill:#de9ed6;font-family:Impact"
     x="263.46204"
     y="805.67041">jeu bayésien</text>
  <text
     id="text282"
     transform="matrix(0.8660254,-0.50000001,0.50000001,0.8660254,0,0)"
     style="font-size:12px;text-anchor:middle;fill:#0065bd;font-family:Impact;fill-opacity:1"
     x="-127.81605"
     y="375.38388">métadonnées</text>
  <text
     id="text284"
     transform="matrix(0.8660254,-0.50000001,0.50000001,0.8660254,0,0)"
     style="font-size:12px;text-anchor:middle;fill:#004078;font-family:Impact;fill-opacity:1"
     x="377.8588"
     y="825.52936">pDCS</text>
  <text
     id="text286"
     transform="matrix(0.8660254,-0.50000001,0.50000001,0.8660254,0,0)"
     style="font-size:10px;text-anchor:middle;fill:#004078;font-family:Impact;fill-opacity:1"
     x="566.03827"
     y="459.59293">BATMAN</text>
  <text
     id="text288"
     transform="matrix(0.8660254,-0.50000001,0.50000001,0.8660254,0,0)"
     style="font-size:10px;text-anchor:middle;fill:#004078;font-family:Impact;fill-opacity:1"
     x="206.14479"
     y="334.94675">DSDV</text>
  <text
     id="text290"
     transform="matrix(0.8660254,-0.50000001,0.50000001,0.8660254,0,0)"
     style="font-size:10px;text-anchor:middle;fill:#637939;font-family:Impact"
     x="-80.553253"
     y="513.52234">DSR</text>
  <text
     id="text292"
     transform="matrix(0.8660254,-0.50000001,0.50000001,0.8660254,0,0)"
     style="font-size:10px;text-anchor:middle;fill:#8ca252;font-family:Impact"
     x="292.64221"
     y="297.12881">ERPDCS</text>
  <text
     id="text294"
     transform="matrix(0.8660254,-0.50000001,0.50000001,0.8660254,0,0)"
     style="font-size:10px;text-anchor:middle;fill:#b5cf6b;font-family:Impact"
     x="510.87802"
     y="535.1333">FDMA</text>
  <text
     id="text296"
     transform="matrix(0.8660254,-0.50000001,0.50000001,0.8660254,0,0)"
     style="font-size:10px;text-anchor:middle;fill:#cedb9c;font-family:Impact"
     x="210.5723"
     y="761.27808">FFUCA</text>
  <text
     id="text298"
     transform="matrix(0.8660254,-0.50000001,0.50000001,0.8660254,0,0)"
     style="font-size:10px;text-anchor:middle;fill:#8c6d31;font-family:Impact"
     x="571.22223"
     y="604.61407">IEEE</text>
  <text
     id="text300"
     transform="matrix(0.8660254,-0.50000001,0.50000001,0.8660254,0,0)"
     style="font-size:10px;text-anchor:middle;fill:#bd9e39;font-family:Impact"
     x="167.61594"
     y="491.68069">IETF</text>
  <text
     id="text302"
     transform="matrix(0.8660254,-0.50000001,0.50000001,0.8660254,0,0)"
     style="font-size:10px;text-anchor:middle;fill:#e7ba52;font-family:Impact"
     x="480.28699"
     y="664.11853">Linux</text>
  <text
     id="text304"
     transform="matrix(0.8660254,-0.50000001,0.50000001,0.8660254,0,0)"
     style="font-size:10px;text-anchor:middle;fill:#e7cb94;font-family:Impact"
     x="216.48195"
     y="409.04224">NIDS</text>
  <text
     id="text306"
     transform="matrix(0.8660254,-0.50000001,0.50000001,0.8660254,0,0)"
     style="font-size:10px;text-anchor:middle;fill:#843c39;font-family:Impact"
     x="-16.177608"
     y="374.02045">OSI</text>
  <text
     id="text308"
     transform="matrix(0.8660254,-0.50000001,0.50000001,0.8660254,0,0)"
     style="font-size:10px;text-anchor:middle;fill:#ad494a;font-family:Impact"
     x="414.42355"
     y="664.19733">SMAC</text>
  <text
     id="text310"
     transform="matrix(0.8660254,-0.50000001,0.50000001,0.8660254,0,0)"
     style="font-size:10px;text-anchor:middle;fill:#d6616b;font-family:Impact"
     x="502.18445"
     y="426.19101">SDMA</text>
  <text
     id="text312"
     transform="matrix(0.8660254,-0.50000001,0.50000001,0.8660254,0,0)"
     style="font-size:10px;text-anchor:middle;fill:#e7969c;font-family:Impact"
     x="472.97421"
     y="300.78461">SecLEACH</text>
  <text
     id="text314"
     transform="matrix(0.8660254,-0.50000001,0.50000001,0.8660254,0,0)"
     style="font-size:10px;text-anchor:middle;fill:#7b4173;font-family:Impact"
     x="225.7858"
     y="380.92752">UDP</text>
  <text
     id="text316"
     transform="matrix(0.8660254,-0.50000001,0.50000001,0.8660254,0,0)"
     style="font-size:10px;text-anchor:middle;fill:#a55194;font-family:Impact"
     x="77.498611"
     y="701.76843">VANET</text>
  <text
     id="text318"
     transform="matrix(0.8660254,-0.50000001,0.50000001,0.8660254,0,0)"
     style="font-size:10px;text-anchor:middle;fill:#0065bd;font-family:Impact;fill-opacity:1"
     x="-179.69873"
     y="411.24731">canal auxiliaire</text>
  <text
     id="text320"
     transform="matrix(0.8660254,-0.50000001,0.50000001,0.8660254,0,0)"
     style="font-size:10px;text-anchor:middle;fill:#5598d3;font-family:Impact;fill-opacity:1"
     x="-204.69873"
     y="454.54858">code correcteur</text>
  <text
     id="text322"
     transform="matrix(0.8660254,-0.50000001,0.50000001,0.8660254,0,0)"
     style="font-size:10px;text-anchor:middle;fill:#004078;font-family:Impact;fill-opacity:1"
     x="-92.354523"
     y="433.96271">complices</text>
  <text
     id="text324"
     transform="matrix(0.8660254,-0.50000001,0.50000001,0.8660254,0,0)"
     style="font-size:10px;text-anchor:middle;fill:#aacbe9;font-family:Impact;fill-opacity:1"
     x="39.595497"
     y="49.418583">crosslayer IDS</text>
  <text
     id="text326"
     transform="matrix(0.8660254,-0.50000001,0.50000001,0.8660254,0,0)"
     style="font-size:10px;text-anchor:middle;fill:#637939;font-family:Impact"
     x="-54.405197"
     y="630.23254">cybermine</text>
  <text
     id="text328"
     transform="matrix(0.8660254,-0.50000001,0.50000001,0.8660254,0,0)"
     style="font-size:10px;text-anchor:middle;fill:#8ca252;font-family:Impact"
     x="494.34473"
     y="459.76984">emplacement</text>
  <text
     id="text330"
     transform="matrix(0.8660254,-0.50000001,0.50000001,0.8660254,0,0)"
     style="font-size:10px;text-anchor:middle;fill:#b5cf6b;font-family:Impact"
     x="-166.82309"
     y="360.94604">grsecurity</text>
  <text
     id="text332"
     transform="matrix(0.8660254,-0.50000001,0.50000001,0.8660254,0,0)"
     style="font-size:10px;text-anchor:middle;fill:#cedb9c;font-family:Impact"
     x="-62.818623"
     y="374.80505">jeu répété</text>
  <text
     id="text334"
     transform="matrix(0.8660254,-0.50000001,0.50000001,0.8660254,0,0)"
     style="font-size:10px;text-anchor:middle;fill:#bd9e39;font-family:Impact"
     x="632.64526"
     y="738.2262">réplication</text>
  <text
     id="text336"
     transform="matrix(0.8660254,-0.50000001,0.50000001,0.8660254,0,0)"
     style="font-size:13px;text-anchor:middle;fill:#843c39;font-family:Impact"
     x="733.86066"
     y="514.91602">sécurité logicielle</text>
  <text
     id="text338"
     transform="matrix(0.8660254,-0.50000001,0.50000001,0.8660254,0,0)"
     style="font-size:12px;text-anchor:middle;fill:#ad494a;font-family:Impact"
     x="-172.12952"
     y="494.13705">Internet des objets</text>
  <text
     id="text340"
     transform="matrix(0.8660254,-0.50000001,0.50000001,0.8660254,0,0)"
     style="font-size:12px;text-anchor:middle;fill:#d6616b;font-family:Impact"
     x="-197.11028"
     y="477.405">objectif de parité</text>
  <text
     id="text342"
     transform="matrix(0.8660254,-0.50000001,0.50000001,0.8660254,0,0)"
     style="font-size:18px;text-anchor:middle;fill:#5598d3;font-family:Impact;fill-opacity:1"
     x="422.42801"
     y="844.33319">couche de liaison de données</text>
  <text
     id="text344"
     transform="matrix(0.8660254,-0.50000001,0.50000001,0.8660254,0,0)"
     style="font-size:39px;text-anchor:middle;fill:#e7ba52;font-family:Impact"
     x="409.0838"
     y="693.44604">système de détection dintrusio</text>
  <text
     id="text346"
     transform="matrix(0.8660254,-0.50000001,0.50000001,0.8660254,0,0)"
     style="font-size:10px;text-anchor:middle;fill:#ce6dbd;font-family:Impact"
     x="714.88696"
     y="569.77948">bloc de chiffrement</text>
  <text
     id="text348"
     transform="matrix(0.8660254,-0.50000001,0.50000001,0.8660254,0,0)"
     style="font-size:10px;text-anchor:middle;fill:#ce6dbd;font-family:Impact"
     x="-210.48592"
     y="528.57233">équilibre de Nash</text>
  <text
     id="text350"
     transform="matrix(0.8660254,-0.50000001,0.50000001,0.8660254,0,0)"
     style="font-size:12px;text-anchor:middle;fill:#0065bd;font-family:Impact;fill-opacity:1"
     x="37.291653"
     y="65.408966">sécurité physique</text>
  <text
     id="text352"
     transform="matrix(0.8660254,-0.50000001,0.50000001,0.8660254,0,0)"
     style="font-size:10px;text-anchor:middle;fill:#de9ed6;font-family:Impact"
     x="713.86066"
     y="549.55701">brouillage réactif</text>
  <text
     id="text354"
     transform="matrix(0.8660254,-0.50000001,0.50000001,0.8660254,0,0)"
     style="font-size:22px;text-anchor:middle;fill:#b5cf6b;font-family:Impact"
     x="467.05237"
     y="795.04156">renouvellement périodique</text>
  <text
     id="text356"
     transform="matrix(0.8660254,-0.5,0.5,0.8660254,0,0)"
     style="font-size:16px;text-anchor:middle;fill:#8c6d31;font-family:Impact"
     x="75.42305"
     y="109.36345">distribution des calculs</text>
  <text
     id="text358"
     transform="matrix(0.8660254,-0.5,0.5,0.8660254,0,0)"
     style="font-size:13px;text-anchor:middle;fill:#de9ed6;font-family:Impact"
     x="-176.56734"
     y="515.82361">cryptographie asymétrique</text>
  <text
     id="text360"
     transform="matrix(0.8660254,-0.5,0.5,0.8660254,0,0)"
     style="font-size:13px;text-anchor:middle;fill:#ce6dbd;font-family:Impact"
     x="489.8703"
     y="907.51971">cryptographie symétrique</text>
  <text
     id="text362"
     transform="matrix(0.8660254,-0.5,0.5,0.8660254,0,0)"
     style="font-size:10px;text-anchor:middle;fill:#a55194;font-family:Impact"
     x="741.99463"
     y="498.82755">brouillage aléatoire</text>
  <text
     id="text364"
     transform="matrix(0.8660254,-0.5,0.5,0.8660254,0,0)"
     style="font-size:10px;text-anchor:middle;fill:#004078;font-family:Impact;fill-opacity:1"
     x="-186.87119"
     y="545.67035">brouillage trompeur</text>
</svg>
