<?xml version="1.0" encoding="UTF-8" standalone="no"?>
<svg
   xmlns:dc="http://purl.org/dc/elements/1.1/"
   xmlns:cc="http://creativecommons.org/ns#"
   xmlns:rdf="http://www.w3.org/1999/02/22-rdf-syntax-ns#"
   xmlns:svg="http://www.w3.org/2000/svg"
   xmlns="http://www.w3.org/2000/svg"
   xmlns:sodipodi="http://sodipodi.sourceforge.net/DTD/sodipodi-0.dtd"
   xmlns:inkscape="http://www.inkscape.org/namespaces/inkscape"
   version="1.1"
   height="586.61243"
   width="921.90991"
   id="svg2"
   inkscape:version="0.48.5 r10040"
   sodipodi:docname="cloud30v2.svg">
  <metadata
     id="metadata370">
    <rdf:RDF>
      <cc:Work
         rdf:about="">
        <dc:format>image/svg+xml</dc:format>
        <dc:type
           rdf:resource="http://purl.org/dc/dcmitype/StillImage" />
        <dc:title></dc:title>
      </cc:Work>
    </rdf:RDF>
  </metadata>
  <defs
     id="defs368" />
  <sodipodi:namedview
     pagecolor="#ffffff"
     bordercolor="#666666"
     borderopacity="1"
     objecttolerance="10"
     gridtolerance="10"
     guidetolerance="10"
     inkscape:pageopacity="0"
     inkscape:pageshadow="2"
     inkscape:window-width="1600"
     inkscape:window-height="880"
     id="namedview366"
     showgrid="false"
     inkscape:zoom="1.0969671"
     inkscape:cx="628.54582"
     inkscape:cy="297.42222"
     inkscape:window-x="-2"
     inkscape:window-y="-3"
     inkscape:window-maximized="1"
     inkscape:current-layer="svg2"
     fit-margin-top="0"
     fit-margin-left="0"
     fit-margin-right="0"
     fit-margin-bottom="0" />
  <text
     id="text86"
     transform="matrix(0.8660254,-0.50000001,0.50000001,0.8660254,0,0)"
     style="font-size:23px;text-anchor:middle;fill:#ff9b3c;fill-opacity:1;font-family:Impact"
     x="271.04623"
     y="246.27582">MAC (couche)</text>
  <text
     id="text124"
     transform="matrix(0.8660254,-0.50000001,0.50000001,0.8660254,0,0)"
     style="font-size:20px;text-anchor:middle;fill:#ff9b3c;fill-opacity:1;font-family:Impact"
     x="464.3447"
     y="337.2963">désynchronisation</text>
  <text
     id="text164"
     transform="matrix(0.8660254,-0.50000001,0.50000001,0.8660254,0,0)"
     style="font-size:17px;text-anchor:middle;fill:#ff9b3c;fill-opacity:1;font-family:Impact"
     x="57.106998"
     y="120.65269">clusterisation hiérarchique</text>
  <text
     id="text200"
     transform="matrix(0.8660254,-0.50000001,0.50000001,0.8660254,0,0)"
     style="font-size:15px;text-anchor:middle;fill:#ff9b3c;fill-opacity:1;font-family:Impact"
     x="294.93057"
     y="778.73016">TinyKey</text>
  <text
     id="text278"
     transform="matrix(0.8660254,-0.50000001,0.50000001,0.8660254,0,0)"
     style="font-size:12px;text-anchor:middle;fill:#ff9b3c;fill-opacity:1;font-family:Impact"
     x="-149.61285"
     y="332.702">historique</text>
  <text
     id="text346"
     transform="matrix(0.8660254,-0.50000001,0.50000001,0.8660254,0,0)"
     style="font-size:10px;text-anchor:middle;fill:#ff9b3c;fill-opacity:1;font-family:Impact"
     x="699.1427"
     y="560.61426">bloc de chiffrement</text>
  <text
     id="text348"
     transform="matrix(0.8660254,-0.50000001,0.50000001,0.8660254,0,0)"
     style="font-size:10px;text-anchor:middle;fill:#ff9b3c;fill-opacity:1;font-family:Impact"
     x="-226.23016"
     y="519.4071">équilibre de Nash</text>
  <text
     id="text360"
     transform="matrix(0.8660254,-0.5,0.5,0.8660254,0,0)"
     style="font-size:13px;text-anchor:middle;fill:#ff9b3c;fill-opacity:1;font-family:Impact"
     x="474.12604"
     y="898.35449">cryptographie symétrique</text>
  <g
     id="g4"
     transform="translate(-18.217549,-0.06521264)" />
  <text
     id="text8"
     transform="matrix(0.8660254,-0.50000001,0.50000001,0.8660254,0,0)"
     style="font-size:31px;text-anchor:middle;fill:#5598d3;fill-opacity:1;font-family:Impact"
     x="-15.309703"
     y="506.08209">collision</text>
  <text
     id="text10"
     transform="matrix(0.8660254,-0.50000001,0.50000001,0.8660254,0,0)"
     style="font-size:16px;text-anchor:middle;fill:#aacbe9;fill-opacity:1;font-family:Impact"
     x="-131.12506"
     y="442.68018">compression</text>
  <text
     id="text12"
     transform="matrix(0.8660254,-0.50000001,0.50000001,0.8660254,0,0)"
     style="font-size:100px;text-anchor:middle;fill:#0065bd;fill-opacity:1;font-family:Impact"
     x="400.43057"
     y="595.99878">cNode</text>
  <text
     id="text14"
     transform="matrix(0.8660254,-0.50000001,0.50000001,0.8660254,0,0)"
     style="font-size:76px;text-anchor:middle;fill:#5598d3;fill-opacity:1;font-family:Impact"
     x="178.25694"
     y="378.81485">cluster head</text>
  <text
     id="text16"
     transform="matrix(0.8660254,-0.50000001,0.50000001,0.8660254,0,0)"
     style="font-size:56px;text-anchor:middle;fill:#004078;fill-opacity:1;font-family:Impact"
     x="445.99017"
     y="643.08728">joueur</text>
  <text
     id="text18"
     transform="matrix(0.8660254,-0.50000001,0.50000001,0.8660254,0,0)"
     style="font-size:48px;text-anchor:middle;fill:#aacbe9;fill-opacity:1;font-family:Impact"
     x="345.75623"
     y="506.69751">sécurité</text>
  <text
     id="text20"
     transform="matrix(0.8660254,-0.50000001,0.50000001,0.8660254,0,0)"
     style="font-size:47px;text-anchor:middle;fill:#637939;font-family:Impact"
     x="318.89279"
     y="439.22638">station de base</text>
  <text
     id="text22"
     transform="matrix(0.8660254,-0.50000001,0.50000001,0.8660254,0,0)"
     style="font-size:43px;text-anchor:middle;fill:#8ca252;font-family:Impact"
     x="69.271713"
     y="313.58279">routage</text>
  <text
     id="text24"
     transform="matrix(0.8660254,-0.50000001,0.50000001,0.8660254,0,0)"
     style="font-size:42px;text-anchor:middle;fill:#b5cf6b;font-family:Impact"
     x="188.66333"
     y="548.79047">sélection</text>
  <text
     id="text26"
     transform="matrix(0.8660254,-0.50000001,0.50000001,0.8660254,0,0)"
     style="font-size:40px;text-anchor:middle;fill:#cedb9c;font-family:Impact"
     x="182.64221"
     y="313.21936">gain</text>
  <text
     id="text28"
     transform="matrix(0.8660254,-0.50000001,0.50000001,0.8660254,0,0)"
     style="font-size:40px;text-anchor:middle;fill:#8c6d31;font-family:Impact"
     x="232.14151"
     y="645.48401">vNode</text>
  <text
     id="text30"
     transform="matrix(0.8660254,-0.50000001,0.50000001,0.8660254,0,0)"
     style="font-size:39px;text-anchor:middle;fill:#bd9e39;font-family:Impact"
     x="125.98641"
     y="585.35004">déni de service</text>
  <text
     id="text32"
     transform="matrix(0.8660254,-0.50000001,0.50000001,0.8660254,0,0)"
     style="font-size:35px;text-anchor:middle;fill:#e7cb94;font-family:Impact"
     x="547.31067"
     y="507.59497">renouvellement</text>
  <text
     id="text34"
     transform="matrix(0.8660254,-0.50000001,0.50000001,0.8660254,0,0)"
     style="font-size:34px;text-anchor:middle;fill:#843c39;font-family:Impact"
     x="504.73444"
     y="403.33923">authentification</text>
  <text
     id="text36"
     transform="matrix(0.8660254,-0.50000001,0.50000001,0.8660254,0,0)"
     style="font-size:34px;text-anchor:middle;fill:#ad494a;font-family:Impact"
     x="551.13824"
     y="622.96552">jeu</text>
  <text
     id="text38"
     transform="matrix(0.8660254,-0.50000001,0.50000001,0.8660254,0,0)"
     style="font-size:33px;text-anchor:middle;fill:#d6616b;font-family:Impact"
     x="130.44864"
     y="279.62128">route</text>
  <text
     id="text40"
     transform="matrix(0.8660254,-0.50000001,0.50000001,0.8660254,0,0)"
     style="font-size:32px;text-anchor:middle;fill:#e7969c;font-family:Impact"
     x="319.03827"
     y="712.97443">chiffrement</text>
  <text
     id="text42"
     transform="matrix(0.8660254,-0.50000001,0.50000001,0.8660254,0,0)"
     style="font-size:31px;text-anchor:middle;fill:#7b4173;font-family:Impact"
     x="206.5127"
     y="467.87445">brouillage</text>
  <text
     id="text44"
     transform="matrix(0.8660254,-0.50000001,0.50000001,0.8660254,0,0)"
     style="font-size:31px;text-anchor:middle;fill:#a55194;font-family:Impact"
     x="68.608879"
     y="406.73087">confiance</text>
  <text
     id="text46"
     transform="matrix(0.8660254,-0.50000001,0.50000001,0.8660254,0,0)"
     style="font-size:31px;text-anchor:middle;fill:#004078;fill-opacity:1;font-family:Impact"
     x="36.855141"
     y="478.26035">mobilité</text>
  <text
     id="text48"
     transform="matrix(0.8660254,-0.50000001,0.50000001,0.8660254,0,0)"
     style="font-size:31px;text-anchor:middle;fill:#de9ed6;font-family:Impact"
     x="51.874256"
     y="543.71606">élection</text>
  <text
     id="text50"
     transform="matrix(0.8660254,-0.50000001,0.50000001,0.8660254,0,0)"
     style="font-size:30px;text-anchor:middle;fill:#0065bd;fill-opacity:1;font-family:Impact"
     x="471.02866"
     y="479.71936">LEACH</text>
  <text
     id="text52"
     transform="matrix(0.8660254,-0.50000001,0.50000001,0.8660254,0,0)"
     style="font-size:30px;text-anchor:middle;fill:#5598d3;fill-opacity:1;font-family:Impact"
     x="145.21658"
     y="250.04242">stratégie</text>
  <text
     id="text54"
     transform="matrix(0.8660254,-0.50000001,0.50000001,0.8660254,0,0)"
     style="font-size:29px;text-anchor:middle;fill:#004078;fill-opacity:1;font-family:Impact"
     x="133.13963"
     y="510.96033">graphe de jeu</text>
  <text
     id="text56"
     transform="matrix(0.8660254,-0.50000001,0.50000001,0.8660254,0,0)"
     style="font-size:28px;text-anchor:middle;fill:#aacbe9;fill-opacity:1;font-family:Impact"
     x="32.118504"
     y="439.93405">sélection aléatoire</text>
  <text
     id="text58"
     transform="matrix(0.8660254,-0.50000001,0.50000001,0.8660254,0,0)"
     style="font-size:28px;text-anchor:middle;fill:#637939;font-family:Impact"
     x="280.25436"
     y="314.15015">intégrité</text>
  <text
     id="text60"
     transform="matrix(0.8660254,-0.50000001,0.50000001,0.8660254,0,0)"
     style="font-size:28px;text-anchor:middle;fill:#8ca252;font-family:Impact"
     x="5.6858349"
     y="275.71677">modélisation</text>
  <text
     id="text62"
     transform="matrix(0.8660254,-0.50000001,0.50000001,0.8660254,0,0)"
     style="font-size:27px;text-anchor:middle;fill:#b5cf6b;font-family:Impact"
     x="65.577446"
     y="613.98145">stratégie gagnante</text>
  <text
     id="text64"
     transform="matrix(0.8660254,-0.50000001,0.50000001,0.8660254,0,0)"
     style="font-size:26px;text-anchor:middle;fill:#cedb9c;font-family:Impact"
     x="-46.768646"
     y="328.57059">RPSGe</text>
  <text
     id="text66"
     transform="matrix(0.8660254,-0.50000001,0.50000001,0.8660254,0,0)"
     style="font-size:26px;text-anchor:middle;fill:#8c6d31;font-family:Impact"
     x="-75.912247"
     y="411.0488">clusterisation</text>
  <text
     id="text68"
     transform="matrix(0.8660254,-0.50000001,0.50000001,0.8660254,0,0)"
     style="font-size:26px;text-anchor:middle;fill:#bd9e39;font-family:Impact"
     x="407.98056"
     y="738.92188">confidentialité</text>
  <text
     id="text70"
     transform="matrix(0.8660254,-0.50000001,0.50000001,0.8660254,0,0)"
     style="font-size:26px;text-anchor:middle;fill:#e7ba52;font-family:Impact"
     x="107.24474"
     y="643.81158">exécution</text>
  <text
     id="text72"
     transform="matrix(0.8660254,-0.50000001,0.50000001,0.8660254,0,0)"
     style="font-size:26px;text-anchor:middle;fill:#e7cb94;font-family:Impact"
     x="356.86392"
     y="463.45844">exclusion</text>
  <text
     id="text74"
     transform="matrix(0.8660254,-0.50000001,0.50000001,0.8660254,0,0)"
     style="font-size:26px;text-anchor:middle;fill:#843c39;font-family:Impact"
     x="251.20113"
     y="738.47186">gain moyen</text>
  <text
     id="text76"
     transform="matrix(0.8660254,-0.50000001,0.50000001,0.8660254,0,0)"
     style="font-size:26px;text-anchor:middle;fill:#ad494a;font-family:Impact"
     x="644.70044"
     y="474.91104">élection démocratique</text>
  <text
     id="text78"
     transform="matrix(0.8660254,-0.50000001,0.50000001,0.8660254,0,0)"
     style="font-size:25px;text-anchor:middle;fill:#d6616b;font-family:Impact"
     x="162.75694"
     y="405.66165">LSAH</text>
  <text
     id="text80"
     transform="matrix(0.8660254,-0.50000001,0.50000001,0.8660254,0,0)"
     style="font-size:25px;text-anchor:middle;fill:#e7969c;font-family:Impact"
     x="33.346092"
     y="247.80777">résilience</text>
  <text
     id="text82"
     transform="matrix(0.8660254,-0.50000001,0.50000001,0.8660254,0,0)"
     style="font-size:24px;text-anchor:middle;fill:#7b4173;font-family:Impact"
     x="223.13258"
     y="273.08795">altération</text>
  <text
     id="text84"
     transform="matrix(0.8660254,-0.50000001,0.50000001,0.8660254,0,0)"
     style="font-size:24px;text-anchor:middle;fill:#a55194;font-family:Impact"
     x="187.53709"
     y="216.74113">sélection selon l'énergie résid.</text>
  <text
     id="text88"
     transform="matrix(0.8660254,-0.50000001,0.50000001,0.8660254,0,0)"
     style="font-size:23px;text-anchor:middle;fill:#de9ed6;font-family:Impact"
     x="-92.787888"
     y="468.27826">cryptographie</text>
  <text
     id="text90"
     transform="matrix(0.8660254,-0.50000001,0.50000001,0.8660254,0,0)"
     style="font-size:23px;text-anchor:middle;fill:#0065bd;fill-opacity:1;font-family:Impact"
     x="329.25366"
     y="647.28082">rejeu</text>
  <text
     id="text92"
     transform="matrix(0.8660254,-0.50000001,0.50000001,0.8660254,0,0)"
     style="font-size:23px;text-anchor:middle;fill:#5598d3;fill-opacity:1;font-family:Impact"
     x="428.75623"
     y="362.93732">réputation</text>
  <text
     id="text94"
     transform="matrix(0.8660254,-0.50000001,0.50000001,0.8660254,0,0)"
     style="font-size:22px;text-anchor:middle;fill:#004078;fill-opacity:1;font-family:Impact"
     x="217.42871"
     y="606.96735">RPSG</text>
  <text
     id="text96"
     transform="matrix(0.8660254,-0.50000001,0.50000001,0.8660254,0,0)"
     style="font-size:22px;text-anchor:middle;fill:#aacbe9;fill-opacity:1;font-family:Impact"
     x="476.81772"
     y="711.69238">accaparement</text>
  <text
     id="text98"
     transform="matrix(0.8660254,-0.50000001,0.50000001,0.8660254,0,0)"
     style="font-size:22px;text-anchor:middle;fill:#637939;font-family:Impact"
     x="524.17926"
     y="437.65976">agrégation</text>
  <text
     id="text100"
     transform="matrix(0.8660254,-0.50000001,0.50000001,0.8660254,0,0)"
     style="font-size:22px;text-anchor:middle;fill:#8ca252;font-family:Impact"
     x="447.31772"
     y="762.7879">model checking</text>
  <text
     id="text102"
     transform="matrix(0.8660254,-0.50000001,0.50000001,0.8660254,0,0)"
     style="font-size:22px;text-anchor:middle;fill:#cedb9c;font-family:Impact"
     x="292.01971"
     y="401.77191">sureté</text>
  <text
     id="text104"
     transform="matrix(0.8660254,-0.50000001,0.50000001,0.8660254,0,0)"
     style="font-size:21px;text-anchor:middle;fill:#8c6d31;font-family:Impact"
     x="244.7159"
     y="495.70459">ALH</text>
  <text
     id="text106"
     transform="matrix(0.8660254,-0.50000001,0.50000001,0.8660254,0,0)"
     style="font-size:21px;text-anchor:middle;fill:#bd9e39;font-family:Impact"
     x="356.01715"
     y="402.92511">TCP</text>
  <text
     id="text108"
     transform="matrix(0.8660254,-0.50000001,0.50000001,0.8660254,0,0)"
     style="font-size:21px;text-anchor:middle;fill:#e7ba52;font-family:Impact"
     x="159.99416"
     y="190.44691">architecture de sécurité</text>
  <text
     id="text110"
     transform="matrix(0.8660254,-0.50000001,0.50000001,0.8660254,0,0)"
     style="font-size:21px;text-anchor:middle;fill:#e7cb94;font-family:Impact"
     x="-102.22314"
     y="386.62057">signature d'attaque</text>
  <text
     id="text112"
     transform="matrix(0.8660254,-0.50000001,0.50000001,0.8660254,0,0)"
     style="font-size:21px;text-anchor:middle;fill:#843c39;font-family:Impact"
     x="379.73254"
     y="313.84888">trou noir</text>
  <text
     id="text114"
     transform="matrix(0.8660254,-0.50000001,0.50000001,0.8660254,0,0)"
     style="font-size:20px;text-anchor:middle;fill:#ad494a;font-family:Impact"
     x="562.4613"
     y="531.35333">IEEE 802.11</text>
  <text
     id="text116"
     transform="matrix(0.8660254,-0.50000001,0.50000001,0.8660254,0,0)"
     style="font-size:20px;text-anchor:middle;fill:#d6616b;font-family:Impact"
     x="316.28064"
     y="273.75079">anomalie</text>
  <text
     id="text118"
     transform="matrix(0.8660254,-0.50000001,0.50000001,0.8660254,0,0)"
     style="font-size:20px;text-anchor:middle;fill:#e7969c;font-family:Impact"
     x="54.963634"
     y="166.01151">auto-élection</text>
  <text
     id="text120"
     transform="matrix(0.8660254,-0.50000001,0.50000001,0.8660254,0,0)"
     style="font-size:20px;text-anchor:middle;fill:#7b4173;font-family:Impact"
     x="592.73633"
     y="556.91553">configuration</text>
  <text
     id="text122"
     transform="matrix(0.8660254,-0.50000001,0.50000001,0.8660254,0,0)"
     style="font-size:20px;text-anchor:middle;fill:#a55194;font-family:Impact"
     x="-54.223129"
     y="303.48215">congestion</text>
  <text
     id="text126"
     transform="matrix(0.8660254,-0.50000001,0.50000001,0.8660254,0,0)"
     style="font-size:20px;text-anchor:middle;fill:#de9ed6;font-family:Impact"
     x="356.30365"
     y="756.42889">ns</text>
  <text
     id="text128"
     transform="matrix(0.8660254,-0.50000001,0.50000001,0.8660254,0,0)"
     style="font-size:20px;text-anchor:middle;fill:#0065bd;fill-opacity:1;font-family:Impact"
     x="299.74661"
     y="616.38855">puits</text>
  <text
     id="text130"
     transform="matrix(0.8660254,-0.50000001,0.50000001,0.8660254,0,0)"
     style="font-size:19px;text-anchor:middle;fill:#5598d3;fill-opacity:1;font-family:Impact"
     x="135.15698"
     y="141.46614">destruction physique</text>
  <text
     id="text132"
     transform="matrix(0.8660254,-0.50000001,0.50000001,0.8660254,0,0)"
     style="font-size:19px;text-anchor:middle;fill:#004078;fill-opacity:1;font-family:Impact"
     x="-43.069916"
     y="222.16418">déluge de paquets</text>
  <text
     id="text134"
     transform="matrix(0.8660254,-0.50000001,0.50000001,0.8660254,0,0)"
     style="font-size:19px;text-anchor:middle;fill:#aacbe9;fill-opacity:1;font-family:Impact"
     x="605.52094"
     y="582.77191">formule de gain</text>
  <text
     id="text136"
     transform="matrix(0.8660254,-0.50000001,0.50000001,0.8660254,0,0)"
     style="font-size:19px;text-anchor:middle;fill:#637939;font-family:Impact"
     x="202.47165"
     y="706.87378">injection</text>
  <text
     id="text138"
     transform="matrix(0.8660254,-0.50000001,0.50000001,0.8660254,0,0)"
     style="font-size:19px;text-anchor:middle;fill:#8ca252;font-family:Impact"
     x="391.23254"
     y="293.93027">signature</text>
  <text
     id="text140"
     transform="matrix(0.8660254,-0.50000001,0.50000001,0.8660254,0,0)"
     style="font-size:19px;text-anchor:middle;fill:#b5cf6b;font-family:Impact"
     x="479.85104"
     y="810.43854">stratégie à mémoire finie</text>
  <text
     id="text142"
     transform="matrix(0.8660254,-0.50000001,0.50000001,0.8660254,0,0)"
     style="font-size:19px;text-anchor:middle;fill:#cedb9c;font-family:Impact"
     x="275.91391"
     y="759.66797">théorie des jeux</text>
  <text
     id="text144"
     transform="matrix(0.8660254,-0.50000001,0.50000001,0.8660254,0,0)"
     style="font-size:18px;text-anchor:middle;fill:#8c6d31;font-family:Impact"
     x="117.75694"
     y="483.60391">TCP/IP</text>
  <text
     id="text146"
     transform="matrix(0.8660254,-0.50000001,0.50000001,0.8660254,0,0)"
     style="font-size:18px;text-anchor:middle;fill:#bd9e39;font-family:Impact"
     x="-94.405205"
     y="525.07953">brouillage intelligent</text>
  <text
     id="text148"
     transform="matrix(0.8660254,-0.50000001,0.50000001,0.8660254,0,0)"
     style="font-size:18px;text-anchor:middle;fill:#e7ba52;font-family:Impact"
     x="-89.31675"
     y="552.26605">comportement cupide</text>
  <text
     id="text150"
     transform="matrix(0.8660254,-0.50000001,0.50000001,0.8660254,0,0)"
     style="font-size:18px;text-anchor:middle;fill:#e7cb94;font-family:Impact"
     x="-89.419289"
     y="352.44366">couche physique</text>
  <text
     id="text152"
     transform="matrix(0.8660254,-0.50000001,0.50000001,0.8660254,0,0)"
     style="font-size:18px;text-anchor:middle;fill:#843c39;font-family:Impact"
     x="-54.3097"
     y="573.63208">falsification</text>
  <text
     id="text154"
     transform="matrix(0.8660254,-0.50000001,0.50000001,0.8660254,0,0)"
     style="font-size:18px;text-anchor:middle;fill:#ad494a;font-family:Impact"
     x="-63.034016"
     y="248.74301">trou de ver</text>
  <text
     id="text156"
     transform="matrix(0.8660254,-0.50000001,0.50000001,0.8660254,0,0)"
     style="font-size:17px;text-anchor:middle;fill:#d6616b;font-family:Impact"
     x="411.41391"
     y="524.9751">CSMA/CA</text>
  <text
     id="text158"
     transform="matrix(0.8660254,-0.50000001,0.50000001,0.8660254,0,0)"
     style="font-size:17px;text-anchor:middle;fill:#e7969c;font-family:Impact"
     x="499.54791"
     y="370.32257">OLSR</text>
  <text
     id="text160"
     transform="matrix(0.8660254,-0.50000001,0.50000001,0.8660254,0,0)"
     style="font-size:17px;text-anchor:middle;fill:#7b4173;font-family:Impact"
     x="549.29846"
     y="646.15204">TinySec</text>
  <text
     id="text162"
     transform="matrix(0.8660254,-0.50000001,0.50000001,0.8660254,0,0)"
     style="font-size:17px;text-anchor:middle;fill:#a55194;font-family:Impact"
     x="414.27222"
     y="858.02441">antenne directionnelle</text>
  <text
     id="text166"
     transform="matrix(0.8660254,-0.50000001,0.50000001,0.8660254,0,0)"
     style="font-size:17px;text-anchor:middle;fill:#de9ed6;font-family:Impact"
     x="79.084488"
     y="672.58655">gestion des clés</text>
  <text
     id="text168"
     transform="matrix(0.8660254,-0.50000001,0.50000001,0.8660254,0,0)"
     style="font-size:17px;text-anchor:middle;fill:#0065bd;fill-opacity:1;font-family:Impact"
     x="-36.132095"
     y="196.14752">élection dynamique</text>
  <text
     id="text170"
     transform="matrix(0.8660254,-0.50000001,0.50000001,0.8660254,0,0)"
     style="font-size:16px;text-anchor:middle;fill:#5598d3;fill-opacity:1;font-family:Impact"
     x="235.85245"
     y="397.05652">MANET</text>
  <text
     id="text172"
     transform="matrix(0.8660254,-0.50000001,0.50000001,0.8660254,0,0)"
     style="font-size:16px;text-anchor:middle;fill:#004078;fill-opacity:1;font-family:Impact"
     x="-109.49812"
     y="321.22122">ZigBee</text>
  <text
     id="text174"
     transform="matrix(0.8660254,-0.50000001,0.50000001,0.8660254,0,0)"
     style="font-size:16px;text-anchor:middle;fill:#aacbe9;fill-opacity:1;font-family:Impact"
     x="342.25366"
     y="624.76416">arène</text>
  <text
     id="text176"
     transform="matrix(0.8660254,-0.50000001,0.50000001,0.8660254,0,0)"
     style="font-size:16px;text-anchor:middle;fill:#637939;font-family:Impact"
     x="-97.359688"
     y="492.19684">boucle</text>
  <text
     id="text178"
     transform="matrix(0.8660254,-0.50000001,0.50000001,0.8660254,0,0)"
     style="font-size:16px;text-anchor:middle;fill:#8ca252;font-family:Impact"
     x="530.04718"
     y="735.49622">condensat</text>
  <text
     id="text180"
     transform="matrix(0.8660254,-0.50000001,0.50000001,0.8660254,0,0)"
     style="font-size:16px;text-anchor:middle;fill:#b5cf6b;font-family:Impact"
     x="628.63568"
     y="600.73602">conjonction</text>
  <text
     id="text182"
     transform="matrix(0.8660254,-0.50000001,0.50000001,0.8660254,0,0)"
     style="font-size:16px;text-anchor:middle;fill:#cedb9c;font-family:Impact"
     x="428.1908"
     y="879.91669">couche transport</text>
  <text
     id="text184"
     transform="matrix(0.8660254,-0.50000001,0.50000001,0.8660254,0,0)"
     style="font-size:16px;text-anchor:middle;fill:#bd9e39;font-family:Impact"
     x="174.7262"
     y="168.93025">réseau clusterisé</text>
  <text
     id="text186"
     transform="matrix(0.8660254,-0.50000001,0.50000001,0.8660254,0,0)"
     style="font-size:16px;text-anchor:middle;fill:#e7cb94;font-family:Impact"
     x="388.84024"
     y="274.07388">trou gris</text>
  <text
     id="text188"
     transform="matrix(0.8660254,-0.50000001,0.50000001,0.8660254,0,0)"
     style="font-size:16px;text-anchor:middle;fill:#843c39;font-family:Impact"
     x="682.7959"
     y="526.92773">usurpation didentité</text>
  <text
     id="text190"
     transform="matrix(0.8660254,-0.50000001,0.50000001,0.8660254,0,0)"
     style="font-size:15px;text-anchor:middle;fill:#ad494a;font-family:Impact"
     x="209.53897"
     y="484.63278">AODV</text>
  <text
     id="text192"
     transform="matrix(0.8660254,-0.50000001,0.50000001,0.8660254,0,0)"
     style="font-size:15px;text-anchor:middle;fill:#d6616b;font-family:Impact"
     x="245.37614"
     y="514.56097">CDMA</text>
  <text
     id="text194"
     transform="matrix(0.8660254,-0.50000001,0.50000001,0.8660254,0,0)"
     style="font-size:15px;text-anchor:middle;fill:#e7969c;font-family:Impact"
     x="467.31842"
     y="310.14566">IEEE 802.15.4</text>
  <text
     id="text196"
     transform="matrix(0.8660254,-0.50000001,0.50000001,0.8660254,0,0)"
     style="font-size:15px;text-anchor:middle;fill:#7b4173;font-family:Impact"
     x="115.09116"
     y="699.6908">MAC (code)</text>
  <text
     id="text198"
     transform="matrix(0.8660254,-0.50000001,0.50000001,0.8660254,0,0)"
     style="font-size:15px;text-anchor:middle;fill:#a55194;font-family:Impact"
     x="119.46272"
     y="462.64944">SNEP</text>
  <text
     id="text202"
     transform="matrix(0.8660254,-0.50000001,0.50000001,0.8660254,0,0)"
     style="font-size:15px;text-anchor:middle;fill:#de9ed6;font-family:Impact"
     x="293.21329"
     y="523.70459">WANET</text>
  <text
     id="text204"
     transform="matrix(0.8660254,-0.50000001,0.50000001,0.8660254,0,0)"
     style="font-size:15px;text-anchor:middle;fill:#0065bd;fill-opacity:1;font-family:Impact"
     x="329.80365"
     y="802.32825">attaque Sybil</text>
  <text
     id="text206"
     transform="matrix(0.8660254,-0.50000001,0.50000001,0.8660254,0,0)"
     style="font-size:15px;text-anchor:middle;fill:#5598d3;fill-opacity:1;font-family:Impact"
     x="644.21002"
     y="445.76041">correction d'erreur</text>
  <text
     id="text208"
     transform="matrix(0.8660254,-0.50000001,0.50000001,0.8660254,0,0)"
     style="font-size:15px;text-anchor:middle;fill:#004078;fill-opacity:1;font-family:Impact"
     x="651.24591"
     y="425.57388">couche application</text>
  <text
     id="text210"
     transform="matrix(0.8660254,-0.50000001,0.50000001,0.8660254,0,0)"
     style="font-size:15px;text-anchor:middle;fill:#aacbe9;fill-opacity:1;font-family:Impact"
     x="233.66522"
     y="776.84491">
    <tspan
       style="font-style:normal;-inkscape-font-specification:Impact Bold"
       id="tspan3163">gNodes</tspan>
  </text>
  <text
     id="text212"
     transform="matrix(0.8660254,-0.50000001,0.50000001,0.8660254,0,0)"
     style="font-size:15px;text-anchor:middle;fill:#637939;font-family:Impact"
     x="597.65234"
     y="706.40076">jeu quantitatif</text>
  <text
     id="text214"
     transform="matrix(0.8660254,-0.50000001,0.50000001,0.8660254,0,0)"
     style="font-size:15px;text-anchor:middle;fill:#8ca252;font-family:Impact"
     x="-2.9917722"
     y="636.74683">non-répudiation</text>
  <text
     id="text216"
     transform="matrix(0.8660254,-0.50000001,0.50000001,0.8660254,0,0)"
     style="font-size:15px;text-anchor:middle;fill:#b5cf6b;font-family:Impact"
     x="597.14526"
     y="625.27893">partie</text>
  <text
     id="text218"
     transform="matrix(0.8660254,-0.50000001,0.50000001,0.8660254,0,0)"
     style="font-size:15px;text-anchor:middle;fill:#cedb9c;font-family:Impact"
     x="40.930084"
     y="76.671913">privation de sommeil</text>
  <text
     id="text220"
     transform="matrix(0.8660254,-0.50000001,0.50000001,0.8660254,0,0)"
     style="font-size:15px;text-anchor:middle;fill:#8c6d31;font-family:Impact"
     x="-54.28273"
     y="177.58534">redondance</text>
  <text
     id="text222"
     transform="matrix(0.8660254,-0.50000001,0.50000001,0.8660254,0,0)"
     style="font-size:15px;text-anchor:middle;fill:#bd9e39;font-family:Impact"
     x="-21.524399"
     y="146.84625">sécurité système</text>
  <text
     id="text224"
     transform="matrix(0.8660254,-0.50000001,0.50000001,0.8660254,0,0)"
     style="font-size:13px;text-anchor:middle;fill:#e7ba52;font-family:Impact"
     x="-104.05069"
     y="267.78598">µTESLA</text>
  <text
     id="text226"
     transform="matrix(0.8660254,-0.50000001,0.50000001,0.8660254,0,0)"
     style="font-size:13px;text-anchor:middle;fill:#e7cb94;font-family:Impact"
     x="377.15369"
     y="252.31552">6LoWPAN</text>
  <text
     id="text228"
     transform="matrix(0.8660254,-0.50000001,0.50000001,0.8660254,0,0)"
     style="font-size:13px;text-anchor:middle;fill:#843c39;font-family:Impact"
     x="160.74733"
     y="439.1424">IP</text>
  <text
     id="text230"
     transform="matrix(0.8660254,-0.50000001,0.50000001,0.8660254,0,0)"
     style="font-size:13px;text-anchor:middle;fill:#ad494a;font-family:Impact"
     x="286.80432"
     y="458.80524">LEAP</text>
  <text
     id="text232"
     transform="matrix(0.8660254,-0.50000001,0.50000001,0.8660254,0,0)"
     style="font-size:13px;text-anchor:middle;fill:#d6616b;font-family:Impact"
     x="231.25694"
     y="287.01614">LLC</text>
  <text
     id="text234"
     transform="matrix(0.8660254,-0.50000001,0.50000001,0.8660254,0,0)"
     style="font-size:13px;text-anchor:middle;fill:#e7969c;font-family:Impact"
     x="-25.730864"
     y="590.13208">SPINS</text>
  <text
     id="text236"
     transform="matrix(0.8660254,-0.50000001,0.50000001,0.8660254,0,0)"
     style="font-size:13px;text-anchor:middle;fill:#7b4173;font-family:Impact"
     x="131.97423"
     y="716.97888">coopération</text>
  <text
     id="text238"
     transform="matrix(0.8660254,-0.50000001,0.50000001,0.8660254,0,0)"
     style="font-size:13px;text-anchor:middle;fill:#a55194;font-family:Impact"
     x="-191.31862"
     y="422.93851">couche réseau</text>
  <text
     id="text240"
     transform="matrix(0.8660254,-0.50000001,0.50000001,0.8660254,0,0)"
     style="font-size:13px;text-anchor:middle;fill:#de9ed6;font-family:Impact"
     x="627.3222"
     y="645.01099">disponibilité</text>
  <text
     id="text242"
     transform="matrix(0.8660254,-0.50000001,0.50000001,0.8660254,0,0)"
     style="font-size:13px;text-anchor:middle;fill:#0065bd;fill-opacity:1;font-family:Impact"
     x="573.98242"
     y="757.39813">partage de secret</text>
  <text
     id="text244"
     transform="matrix(0.8660254,-0.50000001,0.50000001,0.8660254,0,0)"
     style="font-size:13px;text-anchor:middle;fill:#5598d3;fill-opacity:1;font-family:Impact"
     x="-100.88854"
     y="588.30902">sauts de fréquence</text>
  <text
     id="text246"
     transform="matrix(0.8660254,-0.50000001,0.50000001,0.8660254,0,0)"
     style="font-size:13px;text-anchor:middle;fill:#004078;fill-opacity:1;font-family:Impact"
     x="544.52863"
     y="352.41364">somme de contrôle</text>
  <text
     id="text248"
     transform="matrix(0.8660254,-0.50000001,0.50000001,0.8660254,0,0)"
     style="font-size:13px;text-anchor:middle;fill:#aacbe9;fill-opacity:1;font-family:Impact"
     x="-37.418114"
     y="161.6125">trou on/off</text>
  <text
     id="text250"
     transform="matrix(0.8660254,-0.50000001,0.50000001,0.8660254,0,0)"
     style="font-size:12px;text-anchor:middle;fill:#637939;font-family:Impact"
     x="578.8222"
     y="729.01544">AES</text>
  <text
     id="text252"
     transform="matrix(0.8660254,-0.50000001,0.50000001,0.8660254,0,0)"
     style="font-size:12px;text-anchor:middle;fill:#8ca252;font-family:Impact"
     x="155.68703"
     y="739.9071">Bluetooth</text>
  <text
     id="text254"
     transform="matrix(0.8660254,-0.50000001,0.50000001,0.8660254,0,0)"
     style="font-size:12px;text-anchor:middle;fill:#b5cf6b;font-family:Impact"
     x="257.14151"
     y="602.18274">CMTC</text>
  <text
     id="text256"
     transform="matrix(0.8660254,-0.50000001,0.50000001,0.8660254,0,0)"
     style="font-size:12px;text-anchor:middle;fill:#cedb9c;font-family:Impact"
     x="396.0697"
     y="377.55206">CSMA</text>
  <text
     id="text258"
     transform="matrix(0.8660254,-0.50000001,0.50000001,0.8660254,0,0)"
     style="font-size:12px;text-anchor:middle;fill:#8c6d31;font-family:Impact"
     x="177.05821"
     y="480.89111">HEED</text>
  <text
     id="text260"
     transform="matrix(0.8660254,-0.50000001,0.50000001,0.8660254,0,0)"
     style="font-size:12px;text-anchor:middle;fill:#bd9e39;font-family:Impact"
     x="431.45944"
     y="452.25525">HIDS</text>
  <text
     id="text262"
     transform="matrix(0.8660254,-0.50000001,0.50000001,0.8660254,0,0)"
     style="font-size:12px;text-anchor:middle;fill:#e7ba52;font-family:Impact"
     x="579.66968"
     y="371.54761">IEEE 802.15.1</text>
  <text
     id="text264"
     transform="matrix(0.8660254,-0.50000001,0.50000001,0.8660254,0,0)"
     style="font-size:12px;text-anchor:middle;fill:#e7cb94;font-family:Impact"
     x="356.905"
     y="231.38731">Internet</text>
  <text
     id="text266"
     transform="matrix(0.8660254,-0.50000001,0.50000001,0.8660254,0,0)"
     style="font-size:12px;text-anchor:middle;fill:#843c39;font-family:Impact"
     x="-119.41671"
     y="292.40073">LEAP+</text>
  <text
     id="text268"
     transform="matrix(0.8660254,-0.50000001,0.50000001,0.8660254,0,0)"
     style="font-size:12px;text-anchor:middle;fill:#ad494a;font-family:Impact"
     x="25.221041"
     y="651.8808">MiniSec</text>
  <text
     id="text270"
     transform="matrix(0.8660254,-0.50000001,0.50000001,0.8660254,0,0)"
     style="font-size:12px;text-anchor:middle;fill:#d6616b;font-family:Impact"
     x="147.19476"
     y="418.61612">TDMA</text>
  <text
     id="text272"
     transform="matrix(0.8660254,-0.50000001,0.50000001,0.8660254,0,0)"
     style="font-size:12px;text-anchor:middle;fill:#e7969c;font-family:Impact"
     x="-0.93405861"
     y="453.18277">Wi-Fi</text>
  <text
     id="text274"
     transform="matrix(0.8660254,-0.50000001,0.50000001,0.8660254,0,0)"
     style="font-size:12px;text-anchor:middle;fill:#7b4173;font-family:Impact"
     x="644.42029"
     y="621.39624">coalition</text>
  <text
     id="text276"
     transform="matrix(0.8660254,-0.50000001,0.50000001,0.8660254,0,0)"
     style="font-size:12px;text-anchor:middle;fill:#a55194;font-family:Impact"
     x="535.57092"
     y="859.92889">extensibilité</text>
  <text
     id="text280"
     transform="matrix(0.8660254,-0.50000001,0.50000001,0.8660254,0,0)"
     style="font-size:12px;text-anchor:middle;fill:#de9ed6;font-family:Impact"
     x="247.71779"
     y="796.50519">jeu bayésien</text>
  <text
     id="text282"
     transform="matrix(0.8660254,-0.50000001,0.50000001,0.8660254,0,0)"
     style="font-size:12px;text-anchor:middle;fill:#0065bd;fill-opacity:1;font-family:Impact"
     x="-143.5603"
     y="366.21866">métadonnées</text>
  <text
     id="text284"
     transform="matrix(0.8660254,-0.50000001,0.50000001,0.8660254,0,0)"
     style="font-size:12px;text-anchor:middle;fill:#004078;fill-opacity:1;font-family:Impact"
     x="362.11453"
     y="816.36414">pDCS</text>
  <text
     id="text286"
     transform="matrix(0.8660254,-0.50000001,0.50000001,0.8660254,0,0)"
     style="font-size:10px;text-anchor:middle;fill:#004078;fill-opacity:1;font-family:Impact"
     x="550.29401"
     y="450.4277">B.A.T.M.A.N</text>
  <text
     id="text288"
     transform="matrix(0.8660254,-0.50000001,0.50000001,0.8660254,0,0)"
     style="font-size:10px;text-anchor:middle;fill:#004078;fill-opacity:1;font-family:Impact"
     x="190.40054"
     y="325.78152">DSDV</text>
  <text
     id="text290"
     transform="matrix(0.8660254,-0.50000001,0.50000001,0.8660254,0,0)"
     style="font-size:10px;text-anchor:middle;fill:#637939;font-family:Impact"
     x="-96.297508"
     y="504.35712">DSR</text>
  <text
     id="text292"
     transform="matrix(0.8660254,-0.50000001,0.50000001,0.8660254,0,0)"
     style="font-size:10px;text-anchor:middle;fill:#8ca252;font-family:Impact"
     x="276.89795"
     y="287.96359">ERP-DCS</text>
  <text
     id="text294"
     transform="matrix(0.8660254,-0.50000001,0.50000001,0.8660254,0,0)"
     style="font-size:10px;text-anchor:middle;fill:#b5cf6b;font-family:Impact"
     x="495.13376"
     y="525.96808">FDMA</text>
  <text
     id="text296"
     transform="matrix(0.8660254,-0.50000001,0.50000001,0.8660254,0,0)"
     style="font-size:10px;text-anchor:middle;fill:#cedb9c;font-family:Impact"
     x="194.82805"
     y="752.11285">FFUCA</text>
  <text
     id="text298"
     transform="matrix(0.8660254,-0.50000001,0.50000001,0.8660254,0,0)"
     style="font-size:10px;text-anchor:middle;fill:#8c6d31;font-family:Impact"
     x="555.47797"
     y="595.44885">IEEE</text>
  <text
     id="text300"
     transform="matrix(0.8660254,-0.50000001,0.50000001,0.8660254,0,0)"
     style="font-size:10px;text-anchor:middle;fill:#bd9e39;font-family:Impact"
     x="151.87169"
     y="482.51547">IETF</text>
  <text
     id="text302"
     transform="matrix(0.8660254,-0.50000001,0.50000001,0.8660254,0,0)"
     style="font-size:10px;text-anchor:middle;fill:#e7ba52;font-family:Impact"
     x="464.54272"
     y="654.95331">Linux</text>
  <text
     id="text304"
     transform="matrix(0.8660254,-0.50000001,0.50000001,0.8660254,0,0)"
     style="font-size:10px;text-anchor:middle;fill:#e7cb94;font-family:Impact"
     x="200.7377"
     y="399.87701">NIDS</text>
  <text
     id="text306"
     transform="matrix(0.8660254,-0.50000001,0.50000001,0.8660254,0,0)"
     style="font-size:10px;text-anchor:middle;fill:#843c39;font-family:Impact"
     x="-31.921864"
     y="364.85522">OSI</text>
  <text
     id="text308"
     transform="matrix(0.8660254,-0.50000001,0.50000001,0.8660254,0,0)"
     style="font-size:10px;text-anchor:middle;fill:#ad494a;font-family:Impact"
     x="398.67929"
     y="655.0321">SMAC</text>
  <text
     id="text310"
     transform="matrix(0.8660254,-0.50000001,0.50000001,0.8660254,0,0)"
     style="font-size:10px;text-anchor:middle;fill:#d6616b;font-family:Impact"
     x="486.44019"
     y="417.02579">SDMA</text>
  <text
     id="text312"
     transform="matrix(0.8660254,-0.50000001,0.50000001,0.8660254,0,0)"
     style="font-size:10px;text-anchor:middle;fill:#e7969c;font-family:Impact"
     x="457.22995"
     y="291.61938">SecLEACH</text>
  <text
     id="text314"
     transform="matrix(0.8660254,-0.50000001,0.50000001,0.8660254,0,0)"
     style="font-size:10px;text-anchor:middle;fill:#7b4173;font-family:Impact"
     x="210.04155"
     y="371.7623">UDP</text>
  <text
     id="text316"
     transform="matrix(0.8660254,-0.50000001,0.50000001,0.8660254,0,0)"
     style="font-size:10px;text-anchor:middle;fill:#a55194;font-family:Impact"
     x="61.75436"
     y="692.60321">VANET</text>
  <text
     id="text318"
     transform="matrix(0.8660254,-0.50000001,0.50000001,0.8660254,0,0)"
     style="font-size:10px;text-anchor:middle;fill:#0065bd;fill-opacity:1;font-family:Impact"
     x="-195.44298"
     y="402.08209">canal auxiliaire</text>
  <text
     id="text320"
     transform="matrix(0.8660254,-0.50000001,0.50000001,0.8660254,0,0)"
     style="font-size:10px;text-anchor:middle;fill:#5598d3;fill-opacity:1;font-family:Impact"
     x="-220.44298"
     y="445.38336">code correcteur</text>
  <text
     id="text322"
     transform="matrix(0.8660254,-0.50000001,0.50000001,0.8660254,0,0)"
     style="font-size:10px;text-anchor:middle;fill:#004078;fill-opacity:1;font-family:Impact"
     x="-108.09878"
     y="424.79749">complices</text>
  <text
     id="text324"
     transform="matrix(0.8660254,-0.50000001,0.50000001,0.8660254,0,0)"
     style="font-size:10px;text-anchor:middle;fill:#aacbe9;fill-opacity:1;font-family:Impact"
     x="20.571222"
     y="40.464874">
    <tspan
       style="font-style:normal;-inkscape-font-specification:Impact Bold"
       id="tspan3161">cross-layer IDS</tspan>
  </text>
  <text
     id="text326"
     transform="matrix(0.8660254,-0.50000001,0.50000001,0.8660254,0,0)"
     style="font-size:10px;text-anchor:middle;fill:#637939;font-family:Impact"
     x="-70.149452"
     y="621.06732">cybermine</text>
  <text
     id="text328"
     transform="matrix(0.8660254,-0.50000001,0.50000001,0.8660254,0,0)"
     style="font-size:10px;text-anchor:middle;fill:#8ca252;font-family:Impact"
     x="478.60046"
     y="450.60461">emplacement</text>
  <text
     id="text330"
     transform="matrix(0.8660254,-0.50000001,0.50000001,0.8660254,0,0)"
     style="font-size:10px;text-anchor:middle;fill:#b5cf6b;font-family:Impact"
     x="-176.64713"
     y="350.98834">grsecurity</text>
  <text
     id="text332"
     transform="matrix(0.8660254,-0.50000001,0.50000001,0.8660254,0,0)"
     style="font-size:10px;text-anchor:middle;fill:#cedb9c;font-family:Impact"
     x="-78.562881"
     y="365.63983">jeu répété</text>
  <text
     id="text334"
     transform="matrix(0.8660254,-0.50000001,0.50000001,0.8660254,0,0)"
     style="font-size:10px;text-anchor:middle;fill:#bd9e39;font-family:Impact"
     x="616.901"
     y="729.06097">réplication</text>
  <text
     id="text336"
     transform="matrix(0.8660254,-0.50000001,0.50000001,0.8660254,0,0)"
     style="font-size:13px;text-anchor:middle;fill:#843c39;font-family:Impact"
     x="718.11639"
     y="505.75079">sécurité logicielle</text>
  <text
     id="text338"
     transform="matrix(0.8660254,-0.50000001,0.50000001,0.8660254,0,0)"
     style="font-size:12px;text-anchor:middle;fill:#ad494a;font-family:Impact"
     x="-187.87376"
     y="484.97183">Internet des objets</text>
  <text
     id="text340"
     transform="matrix(0.8660254,-0.50000001,0.50000001,0.8660254,0,0)"
     style="font-size:12px;text-anchor:middle;fill:#d6616b;font-family:Impact"
     x="-212.85452"
     y="468.23978">objectif de parité</text>
  <text
     id="text342"
     transform="matrix(0.8660254,-0.50000001,0.50000001,0.8660254,0,0)"
     style="font-size:18px;text-anchor:middle;fill:#5598d3;fill-opacity:1;font-family:Impact"
     x="406.68375"
     y="835.16797">couche de liaison de données</text>
  <text
     id="text344"
     transform="matrix(0.8660254,-0.50000001,0.50000001,0.8660254,0,0)"
     style="font-size:39px;text-anchor:middle;fill:#e7ba52;font-family:Impact"
     x="407.58276"
     y="685.13574">système de détection d'intrusion</text>
  <text
     id="text350"
     transform="matrix(0.8660254,-0.50000001,0.50000001,0.8660254,0,0)"
     style="font-size:12px;text-anchor:middle;fill:#0065bd;fill-opacity:1;font-family:Impact"
     x="21.5474"
     y="56.243717">sécurité physique</text>
  <text
     id="text352"
     transform="matrix(0.8660254,-0.50000001,0.50000001,0.8660254,0,0)"
     style="font-size:10px;text-anchor:middle;fill:#de9ed6;font-family:Impact"
     x="698.11639"
     y="540.39178">brouillage réactif</text>
  <text
     id="text354"
     transform="matrix(0.8660254,-0.50000001,0.50000001,0.8660254,0,0)"
     style="font-size:22px;text-anchor:middle;fill:#b5cf6b;font-family:Impact"
     x="451.30811"
     y="785.87634">renouvellement périodique</text>
  <text
     id="text356"
     transform="matrix(0.8660254,-0.5,0.5,0.8660254,0,0)"
     style="font-size:16px;text-anchor:middle;fill:#8c6d31;font-family:Impact"
     x="59.678799"
     y="100.1982">distribution des calculs</text>
  <text
     id="text358"
     transform="matrix(0.8660254,-0.5,0.5,0.8660254,0,0)"
     style="font-size:13px;text-anchor:middle;fill:#de9ed6;font-family:Impact"
     x="-192.31158"
     y="506.65836">cryptographie asymétrique</text>
  <text
     id="text362"
     transform="matrix(0.8660254,-0.5,0.5,0.8660254,0,0)"
     style="font-size:10px;text-anchor:middle;fill:#a55194;font-family:Impact"
     x="726.25037"
     y="489.66229">brouillage aléatoire</text>
  <text
     id="text364"
     transform="matrix(0.8660254,-0.5,0.5,0.8660254,0,0)"
     style="font-size:10px;text-anchor:middle;fill:#004078;fill-opacity:1;font-family:Impact"
     x="-202.61543"
     y="536.50513">brouillage trompeur</text>
</svg>
